<mxfile host="Electron" agent="Mozilla/5.0 (Macintosh; Intel Mac OS X 10_15_7) AppleWebKit/537.36 (KHTML, like Gecko) draw.io/26.0.4 Chrome/128.0.6613.186 Electron/32.2.5 Safari/537.36" version="26.0.4">
  <diagram name="Page-1" id="VxbZsfQ6vlXJQv2ikdC8">
    <mxGraphModel dx="1385" dy="647" grid="1" gridSize="10" guides="1" tooltips="1" connect="1" arrows="1" fold="1" page="0" pageScale="1" pageWidth="827" pageHeight="1169" math="0" shadow="0">
      <root>
        <mxCell id="0" />
        <mxCell id="1" parent="0" />
        <mxCell id="RNKx994mmjHFGZLLrd0E-2" value="base" style="rounded=1;whiteSpace=wrap;html=1;fillColor=none;strokeWidth=2;shadow=1;fontSize=15;dashed=1;dashPattern=1 1;strokeColor=none;fontFamily=Comic Sans MS;fontStyle=0;direction=west;" parent="1" vertex="1">
          <mxGeometry x="5" y="20.75" width="380" height="276.5" as="geometry" />
        </mxCell>
        <mxCell id="6JfULVVAnRezkE2NTk1h-1" value="" style="group;fontSize=12;rounded=0;glass=0;shadow=0;fontFamily=Comic Sans MS;fontStyle=0;" parent="1" vertex="1" connectable="0">
          <mxGeometry x="266" y="65" width="116" height="30" as="geometry" />
        </mxCell>
        <mxCell id="RNKx994mmjHFGZLLrd0E-6" value="" style="group" parent="6JfULVVAnRezkE2NTk1h-1" vertex="1" connectable="0">
          <mxGeometry x="14" width="79" height="31" as="geometry" />
        </mxCell>
        <mxCell id="6JfULVVAnRezkE2NTk1h-2" value="+" style="text;html=1;align=center;verticalAlign=middle;whiteSpace=wrap;rounded=0;fontFamily=Comic Sans MS;fontStyle=0;" parent="RNKx994mmjHFGZLLrd0E-6" vertex="1">
          <mxGeometry y="1" width="30" height="30" as="geometry" />
        </mxCell>
        <mxCell id="6JfULVVAnRezkE2NTk1h-3" value="U" style="whiteSpace=wrap;glass=0;rounded=1;shadow=0;textShadow=0;strokeWidth=1;perimeterSpacing=2;flipV=1;flipH=1;fontFamily=Comic Sans MS;fontStyle=0;fontSize=7;" parent="RNKx994mmjHFGZLLrd0E-6" vertex="1">
          <mxGeometry x="24" y="9" width="13" height="12" as="geometry" />
        </mxCell>
        <mxCell id="6JfULVVAnRezkE2NTk1h-4" value="= &lt;span style=&quot;font-size: 8px;&quot;&gt;&quot;you&quot;&lt;/span&gt;" style="text;html=1;align=center;verticalAlign=middle;whiteSpace=wrap;rounded=0;fontFamily=Comic Sans MS;fontStyle=0;" parent="RNKx994mmjHFGZLLrd0E-6" vertex="1">
          <mxGeometry x="34" width="45" height="30" as="geometry" />
        </mxCell>
        <mxCell id="yNYJcjaXt91bLXVX-n_l-2" value="= &lt;span style=&quot;font-size: 8px;&quot;&gt;Print Screen&lt;/span&gt;" style="text;html=1;align=center;verticalAlign=middle;whiteSpace=wrap;rounded=0;fontFamily=Comic Sans MS;fontStyle=0;" parent="1" vertex="1">
          <mxGeometry x="180.25" y="80" width="73" height="30" as="geometry" />
        </mxCell>
        <mxCell id="Ht8cUeteIGSEXaey3JQ4-7" value="&#39;" style="whiteSpace=wrap;glass=0;rounded=1;shadow=0;textShadow=0;strokeWidth=2;perimeterSpacing=2;flipV=1;flipH=1;fontFamily=Comic Sans MS;fontStyle=0;fillColor=#FFFFFF;" parent="1" vertex="1">
          <mxGeometry x="80.75" y="174" width="30" height="30" as="geometry" />
        </mxCell>
        <mxCell id="Ht8cUeteIGSEXaey3JQ4-13" value="G" style="whiteSpace=wrap;glass=0;rounded=1;shadow=0;textShadow=0;strokeWidth=2;perimeterSpacing=2;flipV=1;flipH=1;fillColor=#CCE5FF;fontFamily=Comic Sans MS;fontStyle=0;" parent="1" vertex="1">
          <mxGeometry x="140.75" y="154" width="30" height="30" as="geometry" />
        </mxCell>
        <mxCell id="Ht8cUeteIGSEXaey3JQ4-8" value="C&#xa;" style="whiteSpace=wrap;glass=0;rounded=1;shadow=0;textShadow=0;strokeWidth=2;perimeterSpacing=2;flipV=1;flipH=1;fillColor=#FFFFCC;fontFamily=Comic Sans MS;fontStyle=0;gradientColor=#CCFFCC;gradientDirection=east;direction=south;" parent="1" vertex="1">
          <mxGeometry x="110.75" y="184" width="30" height="30" as="geometry" />
        </mxCell>
        <mxCell id="Ht8cUeteIGSEXaey3JQ4-11" value="M" style="whiteSpace=wrap;glass=0;rounded=1;shadow=0;textShadow=0;strokeWidth=2;perimeterSpacing=2;flipV=1;flipH=1;fillColor=#E6D0DE;fontFamily=Comic Sans MS;fontStyle=0;" parent="1" vertex="1">
          <mxGeometry x="110.75" y="124" width="30" height="30" as="geometry" />
        </mxCell>
        <mxCell id="Ht8cUeteIGSEXaey3JQ4-6" value="S&#xa;" style="whiteSpace=wrap;glass=0;rounded=1;shadow=0;textShadow=0;strokeWidth=2;perimeterSpacing=2;flipV=1;flipH=1;fillColor=#CCFFFF;fontFamily=Comic Sans MS;fontStyle=0;strokeColor=#009900;" parent="1" vertex="1">
          <mxGeometry x="110.75" y="154" width="30" height="30" as="geometry" />
        </mxCell>
        <mxCell id="_eD-Y539RmsAj1h9kYog-36" value="" style="group;verticalAlign=middle;fillColor=#009900;opacity=10;fontFamily=Comic Sans MS;fontStyle=0;" parent="1" vertex="1" connectable="0">
          <mxGeometry x="386" y="110" width="370" height="170" as="geometry" />
        </mxCell>
        <mxCell id="_eD-Y539RmsAj1h9kYog-34" value="&lt;font color=&quot;#009900&quot;&gt;nav&lt;/font&gt;" style="rounded=1;whiteSpace=wrap;html=1;fillColor=none;fontFamily=Comic Sans MS;fontSize=15;labelBorderColor=none;strokeWidth=2;glass=0;shadow=1;strokeColor=#009900;verticalAlign=middle;fontStyle=0;" parent="_eD-Y539RmsAj1h9kYog-36" vertex="1">
          <mxGeometry width="370" height="170" as="geometry" />
        </mxCell>
        <mxCell id="MceUDlZtOFOat2aFnNCN-43" value="" style="whiteSpace=wrap;glass=0;rounded=1;shadow=0;textShadow=0;fontSize=12;strokeWidth=2;perimeterSpacing=2;flipV=1;flipH=1;fontFamily=Comic Sans MS;fontStyle=0;" parent="_eD-Y539RmsAj1h9kYog-36" vertex="1">
          <mxGeometry x="10" y="62" width="30" height="30" as="geometry" />
        </mxCell>
        <mxCell id="MceUDlZtOFOat2aFnNCN-44" value="" style="whiteSpace=wrap;glass=0;rounded=1;shadow=0;textShadow=0;strokeWidth=2;perimeterSpacing=2;flipV=1;flipH=1;fontFamily=Comic Sans MS;fontStyle=0;fontSize=12;" parent="_eD-Y539RmsAj1h9kYog-36" vertex="1">
          <mxGeometry x="40" y="49" width="30" height="30" as="geometry" />
        </mxCell>
        <mxCell id="MceUDlZtOFOat2aFnNCN-45" value="" style="whiteSpace=wrap;glass=0;rounded=1;shadow=0;textShadow=0;strokeWidth=2;perimeterSpacing=2;flipV=1;flipH=1;fontFamily=Comic Sans MS;fontStyle=0;fontSize=12;" parent="_eD-Y539RmsAj1h9kYog-36" vertex="1">
          <mxGeometry x="40" y="79" width="30" height="30" as="geometry" />
        </mxCell>
        <mxCell id="MceUDlZtOFOat2aFnNCN-46" value="(L7)" style="whiteSpace=wrap;glass=0;rounded=1;shadow=0;textShadow=0;strokeWidth=2;perimeterSpacing=2;flipV=1;flipH=1;fontFamily=Comic Sans MS;fontStyle=2;fontSize=12;fontColor=#FF0080;" parent="_eD-Y539RmsAj1h9kYog-36" vertex="1">
          <mxGeometry x="70" y="39" width="30" height="30" as="geometry" />
        </mxCell>
        <mxCell id="MceUDlZtOFOat2aFnNCN-47" value="" style="whiteSpace=wrap;glass=0;rounded=1;shadow=0;textShadow=0;fontSize=12;strokeWidth=2;perimeterSpacing=2;flipV=1;flipH=1;fontFamily=Comic Sans MS;fontStyle=0;fillColor=#009900;" parent="_eD-Y539RmsAj1h9kYog-36" vertex="1">
          <mxGeometry x="100" y="49" width="30" height="30" as="geometry" />
        </mxCell>
        <mxCell id="MceUDlZtOFOat2aFnNCN-48" value="" style="whiteSpace=wrap;glass=0;rounded=1;shadow=0;textShadow=0;strokeWidth=2;perimeterSpacing=2;flipV=1;flipH=1;fontFamily=Comic Sans MS;fontStyle=0;fontSize=12;" parent="_eD-Y539RmsAj1h9kYog-36" vertex="1">
          <mxGeometry x="70" y="69" width="30" height="30" as="geometry" />
        </mxCell>
        <mxCell id="MceUDlZtOFOat2aFnNCN-49" value="" style="whiteSpace=wrap;glass=0;rounded=1;shadow=0;textShadow=0;strokeWidth=2;perimeterSpacing=2;flipV=1;flipH=1;fontFamily=Comic Sans MS;fontStyle=0;fontSize=12;" parent="_eD-Y539RmsAj1h9kYog-36" vertex="1">
          <mxGeometry x="100" y="79" width="30" height="30" as="geometry" />
        </mxCell>
        <mxCell id="MceUDlZtOFOat2aFnNCN-50" value="" style="whiteSpace=wrap;glass=0;rounded=1;shadow=0;textShadow=0;strokeWidth=2;perimeterSpacing=2;flipV=1;flipH=1;fontFamily=Comic Sans MS;fontStyle=0;fontSize=12;fillColor=#FFFFFF;" parent="_eD-Y539RmsAj1h9kYog-36" vertex="1">
          <mxGeometry x="40" y="19" width="30" height="30" as="geometry" />
        </mxCell>
        <mxCell id="MceUDlZtOFOat2aFnNCN-51" value="" style="whiteSpace=wrap;glass=0;rounded=1;shadow=0;textShadow=0;fontSize=12;strokeWidth=2;perimeterSpacing=2;flipV=1;flipH=1;fontFamily=Comic Sans MS;fontStyle=0;fillColor=#FFFFFF;" parent="_eD-Y539RmsAj1h9kYog-36" vertex="1">
          <mxGeometry x="70" y="9" width="30" height="30" as="geometry" />
        </mxCell>
        <mxCell id="MceUDlZtOFOat2aFnNCN-52" value="" style="whiteSpace=wrap;glass=0;rounded=1;shadow=0;textShadow=0;strokeWidth=2;perimeterSpacing=2;flipV=1;flipH=1;fontFamily=Comic Sans MS;fontStyle=0;fontSize=12;fillColor=#FFFFFF;" parent="_eD-Y539RmsAj1h9kYog-36" vertex="1">
          <mxGeometry x="100" y="19" width="30" height="30" as="geometry" />
        </mxCell>
        <mxCell id="MceUDlZtOFOat2aFnNCN-53" value="" style="whiteSpace=wrap;glass=0;rounded=1;shadow=0;textShadow=0;strokeWidth=2;perimeterSpacing=2;flipV=1;flipH=1;fontFamily=Comic Sans MS;fontStyle=0;" parent="_eD-Y539RmsAj1h9kYog-36" vertex="1">
          <mxGeometry x="130" y="49" width="30" height="30" as="geometry" />
        </mxCell>
        <mxCell id="MceUDlZtOFOat2aFnNCN-54" value="←&#xa;" style="whiteSpace=wrap;glass=0;rounded=1;shadow=0;textShadow=0;strokeWidth=2;perimeterSpacing=2;flipV=1;flipH=1;fontFamily=Comic Sans MS;fontStyle=0;fontSize=12;" parent="_eD-Y539RmsAj1h9kYog-36" vertex="1">
          <mxGeometry x="209" y="49" width="30" height="30" as="geometry" />
        </mxCell>
        <mxCell id="MceUDlZtOFOat2aFnNCN-55" value="↓" style="whiteSpace=wrap;glass=0;rounded=1;shadow=0;textShadow=0;strokeWidth=2;perimeterSpacing=2;flipV=1;flipH=1;fontFamily=Comic Sans MS;fontStyle=0;fontSize=12;" parent="_eD-Y539RmsAj1h9kYog-36" vertex="1">
          <mxGeometry x="239" y="49" width="30" height="30" as="geometry" />
        </mxCell>
        <mxCell id="MceUDlZtOFOat2aFnNCN-56" value="[" style="whiteSpace=wrap;glass=0;rounded=1;shadow=0;textShadow=0;strokeWidth=2;perimeterSpacing=2;flipV=1;flipH=1;fontFamily=Comic Sans MS;fontStyle=0;fontSize=12;" parent="_eD-Y539RmsAj1h9kYog-36" vertex="1">
          <mxGeometry x="239" y="79" width="30" height="30" as="geometry" />
        </mxCell>
        <mxCell id="MceUDlZtOFOat2aFnNCN-57" value="{" style="whiteSpace=wrap;glass=0;rounded=1;shadow=0;textShadow=0;fontSize=12;strokeWidth=2;perimeterSpacing=2;flipV=1;flipH=1;fontFamily=Comic Sans MS;fontStyle=0;fillColor=#FFFFFF;" parent="_eD-Y539RmsAj1h9kYog-36" vertex="1">
          <mxGeometry x="239" y="19" width="30" height="30" as="geometry" />
        </mxCell>
        <mxCell id="MceUDlZtOFOat2aFnNCN-58" value="↑" style="whiteSpace=wrap;glass=0;rounded=1;shadow=0;textShadow=0;strokeWidth=2;perimeterSpacing=2;flipV=1;flipH=1;fontFamily=Comic Sans MS;fontStyle=0;fontSize=12;" parent="_eD-Y539RmsAj1h9kYog-36" vertex="1">
          <mxGeometry x="269" y="39" width="30" height="30" as="geometry" />
        </mxCell>
        <mxCell id="MceUDlZtOFOat2aFnNCN-59" value="]" style="whiteSpace=wrap;glass=0;rounded=1;shadow=0;textShadow=0;strokeWidth=2;perimeterSpacing=2;flipV=1;flipH=1;fontFamily=Comic Sans MS;fontStyle=0;fontSize=12;" parent="_eD-Y539RmsAj1h9kYog-36" vertex="1">
          <mxGeometry x="269" y="69" width="30" height="30" as="geometry" />
        </mxCell>
        <mxCell id="MceUDlZtOFOat2aFnNCN-60" value="}" style="whiteSpace=wrap;glass=0;rounded=1;shadow=0;textShadow=0;strokeWidth=2;perimeterSpacing=2;flipV=1;flipH=1;fontFamily=Comic Sans MS;fontStyle=0;fontSize=12;fillColor=#FFFFFF;" parent="_eD-Y539RmsAj1h9kYog-36" vertex="1">
          <mxGeometry x="269" y="9" width="30" height="30" as="geometry" />
        </mxCell>
        <mxCell id="MceUDlZtOFOat2aFnNCN-61" value="→&#xa;" style="whiteSpace=wrap;glass=0;rounded=1;shadow=0;textShadow=0;strokeWidth=2;perimeterSpacing=2;flipV=1;flipH=1;fontFamily=Comic Sans MS;fontStyle=0;fontSize=12;" parent="_eD-Y539RmsAj1h9kYog-36" vertex="1">
          <mxGeometry x="299" y="49" width="30" height="30" as="geometry" />
        </mxCell>
        <mxCell id="MceUDlZtOFOat2aFnNCN-62" value="" style="whiteSpace=wrap;glass=0;rounded=1;shadow=0;textShadow=0;strokeWidth=2;perimeterSpacing=2;flipV=1;flipH=1;fontFamily=Comic Sans MS;fontStyle=0;fontSize=12;" parent="_eD-Y539RmsAj1h9kYog-36" vertex="1">
          <mxGeometry x="299" y="79" width="30" height="30" as="geometry" />
        </mxCell>
        <mxCell id="MceUDlZtOFOat2aFnNCN-63" value="" style="whiteSpace=wrap;glass=0;rounded=1;shadow=0;textShadow=0;strokeWidth=2;perimeterSpacing=2;flipV=1;flipH=1;fontFamily=Comic Sans MS;fontStyle=0;fontSize=12;fillColor=#FFFFFF;" parent="_eD-Y539RmsAj1h9kYog-36" vertex="1">
          <mxGeometry x="299" y="19" width="30" height="30" as="geometry" />
        </mxCell>
        <mxCell id="MceUDlZtOFOat2aFnNCN-64" value="" style="whiteSpace=wrap;glass=0;rounded=1;shadow=0;textShadow=0;strokeWidth=2;perimeterSpacing=2;flipV=1;flipH=1;fontFamily=Comic Sans MS;fontStyle=0;fontSize=12;" parent="_eD-Y539RmsAj1h9kYog-36" vertex="1">
          <mxGeometry x="329" y="62" width="30" height="30" as="geometry" />
        </mxCell>
        <mxCell id="MceUDlZtOFOat2aFnNCN-65" value="" style="whiteSpace=wrap;glass=0;rounded=1;shadow=0;textShadow=0;rotation=15;direction=west;labelBackgroundColor=none;fillColor=#FFFFFF;strokeWidth=2;perimeterSpacing=2;flipV=1;flipH=1;fontFamily=Comic Sans MS;fontStyle=0;" parent="_eD-Y539RmsAj1h9kYog-36" vertex="1">
          <mxGeometry x="113" y="117" width="30" height="30" as="geometry" />
        </mxCell>
        <mxCell id="MceUDlZtOFOat2aFnNCN-66" value="" style="whiteSpace=wrap;glass=0;rounded=1;shadow=0;textShadow=0;rotation=30;direction=north;strokeWidth=2;perimeterSpacing=2;flipV=1;flipH=1;fontFamily=Comic Sans MS;fontStyle=0;fillColor=#FFFFFF;" parent="_eD-Y539RmsAj1h9kYog-36" vertex="1">
          <mxGeometry x="144" y="129" width="30" height="30" as="geometry" />
        </mxCell>
        <mxCell id="MceUDlZtOFOat2aFnNCN-67" value="Bksp&#xa;" style="whiteSpace=wrap;glass=0;rounded=1;shadow=0;textShadow=0;rotation=-30;direction=north;strokeWidth=2;perimeterSpacing=2;fontFamily=Comic Sans MS;fontStyle=0;fillColor=#FFFFFF;fontSize=10;fontColor=default;labelPosition=center;verticalLabelPosition=middle;align=center;verticalAlign=middle;" parent="_eD-Y539RmsAj1h9kYog-36" vertex="1">
          <mxGeometry x="192" y="129" width="30" height="30" as="geometry" />
        </mxCell>
        <mxCell id="MceUDlZtOFOat2aFnNCN-68" value="Del&#xa;" style="whiteSpace=wrap;glass=0;rounded=1;shadow=0;textShadow=0;rotation=-15;direction=west;strokeWidth=2;perimeterSpacing=2;flipV=1;flipH=1;fontFamily=Comic Sans MS;fontStyle=0;fillColor=#FFFFFF;fontSize=10;fontColor=default;" parent="_eD-Y539RmsAj1h9kYog-36" vertex="1">
          <mxGeometry x="223" y="117" width="30" height="30" as="geometry" />
        </mxCell>
        <mxCell id="MceUDlZtOFOat2aFnNCN-74" value="&amp;nbsp;prev&amp;nbsp;&lt;div style=&quot;font-size: 7px;&quot;&gt;word&lt;/div&gt;" style="text;html=1;align=right;verticalAlign=middle;whiteSpace=wrap;rounded=0;fontFamily=Comic Sans MS;fontSize=7;fontColor=#FF0080;fontStyle=2;" parent="_eD-Y539RmsAj1h9kYog-36" vertex="1">
          <mxGeometry x="200.75" y="64" width="35" height="10" as="geometry" />
        </mxCell>
        <mxCell id="MceUDlZtOFOat2aFnNCN-75" value="next&amp;nbsp;&lt;div style=&quot;font-size: 7px;&quot;&gt;word&lt;/div&gt;" style="text;html=1;align=right;verticalAlign=middle;whiteSpace=wrap;rounded=0;fontFamily=Comic Sans MS;fontSize=7;fontColor=#FF0080;fontStyle=2;" parent="_eD-Y539RmsAj1h9kYog-36" vertex="1">
          <mxGeometry x="290.75" y="64" width="35" height="10" as="geometry" />
        </mxCell>
        <mxCell id="y5Aq4KX8sx83EvKYHj2Y-2" value="Bksp word" style="text;html=1;align=right;verticalAlign=middle;whiteSpace=wrap;rounded=0;fontFamily=Comic Sans MS;fontSize=6;fontColor=#FF0080;fontStyle=2;rotation=-30;" vertex="1" parent="_eD-Y539RmsAj1h9kYog-36">
          <mxGeometry x="191" y="145" width="35" height="10" as="geometry" />
        </mxCell>
        <mxCell id="y5Aq4KX8sx83EvKYHj2Y-3" value="Del word" style="text;html=1;align=right;verticalAlign=middle;whiteSpace=wrap;rounded=0;fontFamily=Comic Sans MS;fontSize=6;fontColor=#FF0080;fontStyle=2;rotation=-15;" vertex="1" parent="_eD-Y539RmsAj1h9kYog-36">
          <mxGeometry x="219" y="133" width="35" height="10" as="geometry" />
        </mxCell>
        <mxCell id="_eD-Y539RmsAj1h9kYog-58" value="" style="group;fillColor=#9933FF;opacity=10;fontFamily=Comic Sans MS;fontStyle=0;" parent="1" vertex="1" connectable="0">
          <mxGeometry x="5" y="458" width="376" height="170" as="geometry" />
        </mxCell>
        <mxCell id="_eD-Y539RmsAj1h9kYog-56" value="&lt;font color=&quot;#9933ff&quot; style=&quot;font-size: 15px;&quot;&gt;french&lt;/font&gt;" style="rounded=1;whiteSpace=wrap;html=1;strokeWidth=2;fillColor=none;strokeColor=#9933FF;fontFamily=Comic Sans MS;fontStyle=0;" parent="_eD-Y539RmsAj1h9kYog-58" vertex="1">
          <mxGeometry width="376" height="170" as="geometry" />
        </mxCell>
        <mxCell id="_eD-Y539RmsAj1h9kYog-2" value="ç" style="whiteSpace=wrap;glass=0;rounded=1;shadow=0;textShadow=0;fontSize=12;strokeWidth=2;perimeterSpacing=2;flipV=1;flipH=1;fontFamily=Comic Sans MS;fontStyle=0;" parent="_eD-Y539RmsAj1h9kYog-58" vertex="1">
          <mxGeometry x="10.67027027027027" y="63" width="30.486486486486488" height="30" as="geometry" />
        </mxCell>
        <mxCell id="_eD-Y539RmsAj1h9kYog-3" value="ù" style="whiteSpace=wrap;glass=0;rounded=1;shadow=0;textShadow=0;strokeWidth=2;perimeterSpacing=2;flipV=1;flipH=1;fontFamily=Comic Sans MS;fontStyle=0;fontSize=12;" parent="_eD-Y539RmsAj1h9kYog-58" vertex="1">
          <mxGeometry x="41.15675675675676" y="50" width="30.486486486486488" height="30" as="geometry" />
        </mxCell>
        <mxCell id="_eD-Y539RmsAj1h9kYog-4" value="" style="whiteSpace=wrap;glass=0;rounded=1;shadow=0;textShadow=0;strokeWidth=2;perimeterSpacing=2;flipV=1;flipH=1;fontFamily=Comic Sans MS;fontStyle=0;fontSize=12;" parent="_eD-Y539RmsAj1h9kYog-58" vertex="1">
          <mxGeometry x="41.15675675675676" y="80" width="30.486486486486488" height="30" as="geometry" />
        </mxCell>
        <mxCell id="_eD-Y539RmsAj1h9kYog-5" value="û" style="whiteSpace=wrap;glass=0;rounded=1;shadow=0;textShadow=0;strokeWidth=2;perimeterSpacing=2;flipV=1;flipH=1;fontFamily=Comic Sans MS;fontStyle=0;fontSize=12;fontColor=#000000;" parent="_eD-Y539RmsAj1h9kYog-58" vertex="1">
          <mxGeometry x="71.64324324324325" y="40" width="30.486486486486488" height="30" as="geometry" />
        </mxCell>
        <mxCell id="_eD-Y539RmsAj1h9kYog-6" value="è" style="whiteSpace=wrap;glass=0;rounded=1;shadow=0;textShadow=0;fontSize=12;strokeWidth=2;perimeterSpacing=2;flipV=1;flipH=1;fontFamily=Comic Sans MS;fontStyle=0;fillColor=#FFFFFF;" parent="_eD-Y539RmsAj1h9kYog-58" vertex="1">
          <mxGeometry x="102.12972972972973" y="50" width="30.486486486486488" height="30" as="geometry" />
        </mxCell>
        <mxCell id="_eD-Y539RmsAj1h9kYog-7" value="" style="whiteSpace=wrap;glass=0;rounded=1;shadow=0;textShadow=0;strokeWidth=2;perimeterSpacing=2;flipV=1;flipH=1;fontFamily=Comic Sans MS;fontStyle=0;fontSize=12;" parent="_eD-Y539RmsAj1h9kYog-58" vertex="1">
          <mxGeometry x="71.64324324324325" y="70" width="30.486486486486488" height="30" as="geometry" />
        </mxCell>
        <mxCell id="_eD-Y539RmsAj1h9kYog-8" value="" style="whiteSpace=wrap;glass=0;rounded=1;shadow=0;textShadow=0;strokeWidth=2;perimeterSpacing=2;flipV=1;flipH=1;fontFamily=Comic Sans MS;fontStyle=0;fontSize=12;" parent="_eD-Y539RmsAj1h9kYog-58" vertex="1">
          <mxGeometry x="102.12972972972973" y="80" width="30.486486486486488" height="30" as="geometry" />
        </mxCell>
        <mxCell id="_eD-Y539RmsAj1h9kYog-9" value="" style="whiteSpace=wrap;glass=0;rounded=1;shadow=0;textShadow=0;strokeWidth=2;perimeterSpacing=2;flipV=1;flipH=1;fontFamily=Comic Sans MS;fontStyle=0;fontSize=12;fillColor=#FFFFFF;" parent="_eD-Y539RmsAj1h9kYog-58" vertex="1">
          <mxGeometry x="41.15675675675676" y="20" width="30.486486486486488" height="30" as="geometry" />
        </mxCell>
        <mxCell id="_eD-Y539RmsAj1h9kYog-10" value="" style="whiteSpace=wrap;glass=0;rounded=1;shadow=0;textShadow=0;fontSize=12;strokeWidth=2;perimeterSpacing=2;flipV=1;flipH=1;fontFamily=Comic Sans MS;fontStyle=0;fillColor=#FFFFFF;" parent="_eD-Y539RmsAj1h9kYog-58" vertex="1">
          <mxGeometry x="71.64324324324325" y="10" width="30.486486486486488" height="30" as="geometry" />
        </mxCell>
        <mxCell id="_eD-Y539RmsAj1h9kYog-11" value="" style="whiteSpace=wrap;glass=0;rounded=1;shadow=0;textShadow=0;strokeWidth=2;perimeterSpacing=2;flipV=1;flipH=1;fontFamily=Comic Sans MS;fontStyle=0;fontSize=12;fillColor=#FFFFFF;" parent="_eD-Y539RmsAj1h9kYog-58" vertex="1">
          <mxGeometry x="102.12972972972973" y="20" width="30.486486486486488" height="30" as="geometry" />
        </mxCell>
        <mxCell id="_eD-Y539RmsAj1h9kYog-12" value="ê" style="whiteSpace=wrap;glass=0;rounded=1;shadow=0;textShadow=0;strokeWidth=2;perimeterSpacing=2;flipV=1;flipH=1;fontFamily=Comic Sans MS;fontStyle=0;" parent="_eD-Y539RmsAj1h9kYog-58" vertex="1">
          <mxGeometry x="132.6162162162162" y="50" width="30.486486486486488" height="30" as="geometry" />
        </mxCell>
        <mxCell id="_eD-Y539RmsAj1h9kYog-13" value="&#xa;" style="whiteSpace=wrap;glass=0;rounded=1;shadow=0;textShadow=0;strokeWidth=2;perimeterSpacing=2;flipV=1;flipH=1;fontFamily=Comic Sans MS;fontStyle=0;fontSize=12;" parent="_eD-Y539RmsAj1h9kYog-58" vertex="1">
          <mxGeometry x="212.89729729729729" y="50" width="30.486486486486488" height="30" as="geometry" />
        </mxCell>
        <mxCell id="_eD-Y539RmsAj1h9kYog-14" value="" style="whiteSpace=wrap;glass=0;rounded=1;shadow=0;textShadow=0;strokeWidth=2;perimeterSpacing=2;flipV=1;flipH=1;fontFamily=Comic Sans MS;fontStyle=0;fontSize=12;fillColor=#9933FF;" parent="_eD-Y539RmsAj1h9kYog-58" vertex="1">
          <mxGeometry x="243.3837837837838" y="50" width="30.486486486486488" height="30" as="geometry" />
        </mxCell>
        <mxCell id="_eD-Y539RmsAj1h9kYog-15" value="" style="whiteSpace=wrap;glass=0;rounded=1;shadow=0;textShadow=0;strokeWidth=2;perimeterSpacing=2;flipV=1;flipH=1;fontFamily=Comic Sans MS;fontStyle=0;fontSize=12;" parent="_eD-Y539RmsAj1h9kYog-58" vertex="1">
          <mxGeometry x="243.3837837837838" y="80" width="30.486486486486488" height="30" as="geometry" />
        </mxCell>
        <mxCell id="_eD-Y539RmsAj1h9kYog-16" value="" style="whiteSpace=wrap;glass=0;rounded=1;shadow=0;textShadow=0;fontSize=12;strokeWidth=2;perimeterSpacing=2;flipV=1;flipH=1;fontFamily=Comic Sans MS;fontStyle=0;fillColor=#FFFFFF;" parent="_eD-Y539RmsAj1h9kYog-58" vertex="1">
          <mxGeometry x="243.3837837837838" y="20" width="30.486486486486488" height="30" as="geometry" />
        </mxCell>
        <mxCell id="_eD-Y539RmsAj1h9kYog-17" value="é" style="whiteSpace=wrap;glass=0;rounded=1;shadow=0;textShadow=0;strokeWidth=2;perimeterSpacing=2;flipV=1;flipH=1;fontFamily=Comic Sans MS;fontStyle=0;fontSize=12;" parent="_eD-Y539RmsAj1h9kYog-58" vertex="1">
          <mxGeometry x="273.8702702702702" y="40" width="30.486486486486488" height="30" as="geometry" />
        </mxCell>
        <mxCell id="_eD-Y539RmsAj1h9kYog-18" value="" style="whiteSpace=wrap;glass=0;rounded=1;shadow=0;textShadow=0;strokeWidth=2;perimeterSpacing=2;flipV=1;flipH=1;fontFamily=Comic Sans MS;fontStyle=0;fontSize=12;" parent="_eD-Y539RmsAj1h9kYog-58" vertex="1">
          <mxGeometry x="273.8702702702702" y="70" width="30.486486486486488" height="30" as="geometry" />
        </mxCell>
        <mxCell id="_eD-Y539RmsAj1h9kYog-19" value="" style="whiteSpace=wrap;glass=0;rounded=1;shadow=0;textShadow=0;strokeWidth=2;perimeterSpacing=2;flipV=1;flipH=1;fontFamily=Comic Sans MS;fontStyle=0;fontSize=12;fillColor=#FFFFFF;" parent="_eD-Y539RmsAj1h9kYog-58" vertex="1">
          <mxGeometry x="273.8702702702702" y="10" width="30.486486486486488" height="30" as="geometry" />
        </mxCell>
        <mxCell id="_eD-Y539RmsAj1h9kYog-20" value="à" style="whiteSpace=wrap;glass=0;rounded=1;shadow=0;textShadow=0;strokeWidth=2;perimeterSpacing=2;flipV=1;flipH=1;fontFamily=Comic Sans MS;fontStyle=0;fontSize=12;" parent="_eD-Y539RmsAj1h9kYog-58" vertex="1">
          <mxGeometry x="304.3567567567568" y="50" width="30.486486486486488" height="30" as="geometry" />
        </mxCell>
        <mxCell id="_eD-Y539RmsAj1h9kYog-21" value="" style="whiteSpace=wrap;glass=0;rounded=1;shadow=0;textShadow=0;strokeWidth=2;perimeterSpacing=2;flipV=1;flipH=1;fontFamily=Comic Sans MS;fontStyle=0;fontSize=12;" parent="_eD-Y539RmsAj1h9kYog-58" vertex="1">
          <mxGeometry x="304.3567567567568" y="80" width="30.486486486486488" height="30" as="geometry" />
        </mxCell>
        <mxCell id="_eD-Y539RmsAj1h9kYog-22" value="" style="whiteSpace=wrap;glass=0;rounded=1;shadow=0;textShadow=0;strokeWidth=2;perimeterSpacing=2;flipV=1;flipH=1;fontFamily=Comic Sans MS;fontStyle=0;fontSize=12;fillColor=#FFFFFF;" parent="_eD-Y539RmsAj1h9kYog-58" vertex="1">
          <mxGeometry x="304.3567567567568" y="20" width="30.486486486486488" height="30" as="geometry" />
        </mxCell>
        <mxCell id="_eD-Y539RmsAj1h9kYog-23" value="" style="whiteSpace=wrap;glass=0;rounded=1;shadow=0;textShadow=0;strokeWidth=2;perimeterSpacing=2;flipV=1;flipH=1;fontFamily=Comic Sans MS;fontStyle=0;fontSize=12;" parent="_eD-Y539RmsAj1h9kYog-58" vertex="1">
          <mxGeometry x="334.84324324324325" y="63" width="30.486486486486488" height="30" as="geometry" />
        </mxCell>
        <mxCell id="_eD-Y539RmsAj1h9kYog-24" value="" style="whiteSpace=wrap;glass=0;rounded=1;shadow=0;textShadow=0;rotation=15;direction=west;labelBackgroundColor=none;fillColor=#FFFFFF;strokeWidth=2;perimeterSpacing=2;flipV=1;flipH=1;fontFamily=Comic Sans MS;fontStyle=0;" parent="_eD-Y539RmsAj1h9kYog-58" vertex="1">
          <mxGeometry x="115.34054054054054" y="118" width="30.486486486486488" height="30" as="geometry" />
        </mxCell>
        <mxCell id="_eD-Y539RmsAj1h9kYog-25" value="" style="whiteSpace=wrap;glass=0;rounded=1;shadow=0;textShadow=0;rotation=30;direction=north;strokeWidth=2;perimeterSpacing=2;flipV=1;flipH=1;fontFamily=Comic Sans MS;fontStyle=0;fillColor=#FFFFFF;" parent="_eD-Y539RmsAj1h9kYog-58" vertex="1">
          <mxGeometry x="146.84324324324325" y="130" width="30.486486486486488" height="30" as="geometry" />
        </mxCell>
        <mxCell id="_eD-Y539RmsAj1h9kYog-26" value="" style="whiteSpace=wrap;glass=0;rounded=1;shadow=0;textShadow=0;rotation=-30;direction=north;strokeWidth=2;perimeterSpacing=2;fontFamily=Comic Sans MS;fontStyle=0;fillColor=#FFFFFF;fontSize=11;" parent="_eD-Y539RmsAj1h9kYog-58" vertex="1">
          <mxGeometry x="195.6216216216216" y="130" width="30.486486486486488" height="30" as="geometry" />
        </mxCell>
        <mxCell id="_eD-Y539RmsAj1h9kYog-27" value="" style="whiteSpace=wrap;glass=0;rounded=1;shadow=0;textShadow=0;rotation=-15;direction=west;strokeWidth=2;perimeterSpacing=2;flipV=1;flipH=1;fontFamily=Comic Sans MS;fontStyle=0;fillColor=#FFFFFF;fontSize=11;" parent="_eD-Y539RmsAj1h9kYog-58" vertex="1">
          <mxGeometry x="227.1243243243243" y="118" width="30.486486486486488" height="30" as="geometry" />
        </mxCell>
        <mxCell id="_eD-Y539RmsAj1h9kYog-43" value="" style="group;fillColor=#FF0000;opacity=10;fontFamily=Comic Sans MS;fontStyle=0;" parent="1" vertex="1" connectable="0">
          <mxGeometry x="-367" y="100" width="370" height="180" as="geometry" />
        </mxCell>
        <mxCell id="_eD-Y539RmsAj1h9kYog-41" value="&lt;font style=&quot;font-size: 15px;&quot; color=&quot;#ff0000&quot;&gt;num&lt;/font&gt;" style="rounded=1;whiteSpace=wrap;html=1;fillColor=none;strokeWidth=2;shadow=1;strokeColor=#FF0000;fontFamily=Comic Sans MS;fontStyle=0;" parent="_eD-Y539RmsAj1h9kYog-43" vertex="1">
          <mxGeometry width="370" height="180" as="geometry" />
        </mxCell>
        <mxCell id="5RLpgv3sIOo74zPUsTbB-4" value="0" style="whiteSpace=wrap;glass=0;rounded=1;shadow=0;textShadow=0;fontSize=12;strokeWidth=2;perimeterSpacing=2;flipV=1;flipH=1;fontFamily=Comic Sans MS;fontStyle=0;" parent="_eD-Y539RmsAj1h9kYog-43" vertex="1">
          <mxGeometry x="10" y="66" width="30" height="30" as="geometry" />
        </mxCell>
        <mxCell id="5RLpgv3sIOo74zPUsTbB-5" value="4" style="whiteSpace=wrap;glass=0;rounded=1;shadow=0;textShadow=0;strokeWidth=2;perimeterSpacing=2;flipV=1;flipH=1;fontFamily=Comic Sans MS;fontStyle=0;fontSize=12;fillColor=#FFFFFF;" parent="_eD-Y539RmsAj1h9kYog-43" vertex="1">
          <mxGeometry x="40" y="53" width="30" height="30" as="geometry" />
        </mxCell>
        <mxCell id="5RLpgv3sIOo74zPUsTbB-6" value="1" style="whiteSpace=wrap;glass=0;rounded=1;shadow=0;textShadow=0;strokeWidth=2;perimeterSpacing=2;flipV=1;flipH=1;fontFamily=Comic Sans MS;fontStyle=0;fontSize=12;" parent="_eD-Y539RmsAj1h9kYog-43" vertex="1">
          <mxGeometry x="40" y="83" width="30" height="30" as="geometry" />
        </mxCell>
        <mxCell id="5RLpgv3sIOo74zPUsTbB-7" value="5" style="whiteSpace=wrap;glass=0;rounded=1;shadow=0;textShadow=0;strokeWidth=2;perimeterSpacing=2;flipV=1;flipH=1;fontFamily=Comic Sans MS;fontStyle=0;fontSize=12;fillColor=#FF0000;" parent="_eD-Y539RmsAj1h9kYog-43" vertex="1">
          <mxGeometry x="70" y="43" width="30" height="30" as="geometry" />
        </mxCell>
        <mxCell id="5RLpgv3sIOo74zPUsTbB-8" value="6" style="whiteSpace=wrap;glass=0;rounded=1;shadow=0;textShadow=0;fontSize=12;strokeWidth=2;perimeterSpacing=2;flipV=1;flipH=1;fontFamily=Comic Sans MS;fontStyle=0;" parent="_eD-Y539RmsAj1h9kYog-43" vertex="1">
          <mxGeometry x="100" y="53" width="30" height="30" as="geometry" />
        </mxCell>
        <mxCell id="5RLpgv3sIOo74zPUsTbB-9" value="2" style="whiteSpace=wrap;glass=0;rounded=1;shadow=0;textShadow=0;strokeWidth=2;perimeterSpacing=2;flipV=1;flipH=1;fontFamily=Comic Sans MS;fontStyle=0;fontSize=12;" parent="_eD-Y539RmsAj1h9kYog-43" vertex="1">
          <mxGeometry x="70" y="73" width="30" height="30" as="geometry" />
        </mxCell>
        <mxCell id="5RLpgv3sIOo74zPUsTbB-10" value="3" style="whiteSpace=wrap;glass=0;rounded=1;shadow=0;textShadow=0;strokeWidth=2;perimeterSpacing=2;flipV=1;flipH=1;fontFamily=Comic Sans MS;fontStyle=0;fontSize=12;" parent="_eD-Y539RmsAj1h9kYog-43" vertex="1">
          <mxGeometry x="100" y="83" width="30" height="30" as="geometry" />
        </mxCell>
        <mxCell id="5RLpgv3sIOo74zPUsTbB-11" value="7" style="whiteSpace=wrap;glass=0;rounded=1;shadow=0;textShadow=0;strokeWidth=2;perimeterSpacing=2;flipV=1;flipH=1;fontFamily=Comic Sans MS;fontStyle=0;fontSize=12;fillColor=#FFFFFF;" parent="_eD-Y539RmsAj1h9kYog-43" vertex="1">
          <mxGeometry x="40" y="23" width="30" height="30" as="geometry" />
        </mxCell>
        <mxCell id="5RLpgv3sIOo74zPUsTbB-12" value="8" style="whiteSpace=wrap;glass=0;rounded=1;shadow=0;textShadow=0;fontSize=12;strokeWidth=2;perimeterSpacing=2;flipV=1;flipH=1;fontFamily=Comic Sans MS;fontStyle=0;fillColor=#FFFFFF;" parent="_eD-Y539RmsAj1h9kYog-43" vertex="1">
          <mxGeometry x="70" y="13" width="30" height="30" as="geometry" />
        </mxCell>
        <mxCell id="5RLpgv3sIOo74zPUsTbB-13" value="9" style="whiteSpace=wrap;glass=0;rounded=1;shadow=0;textShadow=0;strokeWidth=2;perimeterSpacing=2;flipV=1;flipH=1;fontFamily=Comic Sans MS;fontStyle=0;fontSize=12;fillColor=#FFFFFF;" parent="_eD-Y539RmsAj1h9kYog-43" vertex="1">
          <mxGeometry x="100" y="23" width="30" height="30" as="geometry" />
        </mxCell>
        <mxCell id="5RLpgv3sIOo74zPUsTbB-14" value="000" style="whiteSpace=wrap;glass=0;rounded=1;shadow=0;textShadow=0;strokeWidth=2;perimeterSpacing=2;flipV=1;flipH=1;fontFamily=Comic Sans MS;fontStyle=0;" parent="_eD-Y539RmsAj1h9kYog-43" vertex="1">
          <mxGeometry x="130" y="53" width="30" height="30" as="geometry" />
        </mxCell>
        <mxCell id="5RLpgv3sIOo74zPUsTbB-15" value="000" style="whiteSpace=wrap;glass=0;rounded=1;shadow=0;textShadow=0;strokeWidth=2;perimeterSpacing=2;flipV=1;flipH=1;fontFamily=Comic Sans MS;fontStyle=0;fontSize=12;" parent="_eD-Y539RmsAj1h9kYog-43" vertex="1">
          <mxGeometry x="209" y="53" width="30" height="30" as="geometry" />
        </mxCell>
        <mxCell id="5RLpgv3sIOo74zPUsTbB-16" value="4" style="whiteSpace=wrap;glass=0;rounded=1;shadow=0;textShadow=0;strokeWidth=2;perimeterSpacing=2;flipV=1;flipH=1;fontFamily=Comic Sans MS;fontStyle=0;fontSize=12;" parent="_eD-Y539RmsAj1h9kYog-43" vertex="1">
          <mxGeometry x="239" y="53" width="30" height="30" as="geometry" />
        </mxCell>
        <mxCell id="5RLpgv3sIOo74zPUsTbB-17" value="1" style="whiteSpace=wrap;glass=0;rounded=1;shadow=0;textShadow=0;strokeWidth=2;perimeterSpacing=2;flipV=1;flipH=1;fontFamily=Comic Sans MS;fontStyle=0;fontSize=12;" parent="_eD-Y539RmsAj1h9kYog-43" vertex="1">
          <mxGeometry x="239" y="83" width="30" height="30" as="geometry" />
        </mxCell>
        <mxCell id="5RLpgv3sIOo74zPUsTbB-18" value="7" style="whiteSpace=wrap;glass=0;rounded=1;shadow=0;textShadow=0;fontSize=12;strokeWidth=2;perimeterSpacing=2;flipV=1;flipH=1;fontFamily=Comic Sans MS;fontStyle=0;" parent="_eD-Y539RmsAj1h9kYog-43" vertex="1">
          <mxGeometry x="239" y="23" width="30" height="30" as="geometry" />
        </mxCell>
        <mxCell id="5RLpgv3sIOo74zPUsTbB-19" value="5" style="whiteSpace=wrap;glass=0;rounded=1;shadow=0;textShadow=0;strokeWidth=2;perimeterSpacing=2;flipV=1;flipH=1;fontFamily=Comic Sans MS;fontStyle=0;fontSize=12;fillColor=#FF0000;" parent="_eD-Y539RmsAj1h9kYog-43" vertex="1">
          <mxGeometry x="269" y="43" width="30" height="30" as="geometry" />
        </mxCell>
        <mxCell id="5RLpgv3sIOo74zPUsTbB-20" value="2" style="whiteSpace=wrap;glass=0;rounded=1;shadow=0;textShadow=0;strokeWidth=2;perimeterSpacing=2;flipV=1;flipH=1;fontFamily=Comic Sans MS;fontStyle=0;fontSize=12;" parent="_eD-Y539RmsAj1h9kYog-43" vertex="1">
          <mxGeometry x="269" y="73" width="30" height="30" as="geometry" />
        </mxCell>
        <mxCell id="5RLpgv3sIOo74zPUsTbB-21" value="8" style="whiteSpace=wrap;glass=0;rounded=1;shadow=0;textShadow=0;strokeWidth=2;perimeterSpacing=2;flipV=1;flipH=1;fontFamily=Comic Sans MS;fontStyle=0;fontSize=12;" parent="_eD-Y539RmsAj1h9kYog-43" vertex="1">
          <mxGeometry x="269" y="13" width="30" height="30" as="geometry" />
        </mxCell>
        <mxCell id="5RLpgv3sIOo74zPUsTbB-22" value="6" style="whiteSpace=wrap;glass=0;rounded=1;shadow=0;textShadow=0;strokeWidth=2;perimeterSpacing=2;flipV=1;flipH=1;fontFamily=Comic Sans MS;fontStyle=0;fontSize=12;" parent="_eD-Y539RmsAj1h9kYog-43" vertex="1">
          <mxGeometry x="299" y="53" width="30" height="30" as="geometry" />
        </mxCell>
        <mxCell id="5RLpgv3sIOo74zPUsTbB-23" value="3" style="whiteSpace=wrap;glass=0;rounded=1;shadow=0;textShadow=0;strokeWidth=2;perimeterSpacing=2;flipV=1;flipH=1;fontFamily=Comic Sans MS;fontStyle=0;fontSize=12;" parent="_eD-Y539RmsAj1h9kYog-43" vertex="1">
          <mxGeometry x="299" y="83" width="30" height="30" as="geometry" />
        </mxCell>
        <mxCell id="5RLpgv3sIOo74zPUsTbB-24" value="9" style="whiteSpace=wrap;glass=0;rounded=1;shadow=0;textShadow=0;strokeWidth=2;perimeterSpacing=2;flipV=1;flipH=1;fontFamily=Comic Sans MS;fontStyle=0;fontSize=12;" parent="_eD-Y539RmsAj1h9kYog-43" vertex="1">
          <mxGeometry x="299" y="23" width="30" height="30" as="geometry" />
        </mxCell>
        <mxCell id="5RLpgv3sIOo74zPUsTbB-25" value="0" style="whiteSpace=wrap;glass=0;rounded=1;shadow=0;textShadow=0;strokeWidth=2;perimeterSpacing=2;flipV=1;flipH=1;fontFamily=Comic Sans MS;fontStyle=0;fontSize=12;" parent="_eD-Y539RmsAj1h9kYog-43" vertex="1">
          <mxGeometry x="329" y="66" width="30" height="30" as="geometry" />
        </mxCell>
        <mxCell id="5RLpgv3sIOo74zPUsTbB-26" value="" style="whiteSpace=wrap;glass=0;rounded=1;shadow=0;textShadow=0;rotation=15;direction=west;labelBackgroundColor=none;fillColor=#FFFFFF;strokeWidth=2;perimeterSpacing=2;flipV=1;flipH=1;fontFamily=Comic Sans MS;fontStyle=0;" parent="_eD-Y539RmsAj1h9kYog-43" vertex="1">
          <mxGeometry x="113" y="121" width="30" height="30" as="geometry" />
        </mxCell>
        <mxCell id="5RLpgv3sIOo74zPUsTbB-27" value="Spc" style="whiteSpace=wrap;glass=0;rounded=1;shadow=0;textShadow=0;rotation=30;direction=north;strokeWidth=2;perimeterSpacing=2;flipV=1;flipH=1;fontFamily=Comic Sans MS;fontStyle=0;fillColor=#FFFFFF;" parent="_eD-Y539RmsAj1h9kYog-43" vertex="1">
          <mxGeometry x="144" y="133" width="30" height="30" as="geometry" />
        </mxCell>
        <mxCell id="5RLpgv3sIOo74zPUsTbB-28" value="Bksp" style="whiteSpace=wrap;glass=0;rounded=1;shadow=0;textShadow=0;rotation=-30;direction=north;strokeWidth=2;perimeterSpacing=2;fontFamily=Comic Sans MS;fontStyle=0;fillColor=#FFFFFF;fontSize=12;" parent="_eD-Y539RmsAj1h9kYog-43" vertex="1">
          <mxGeometry x="192" y="133" width="30" height="30" as="geometry" />
        </mxCell>
        <mxCell id="5RLpgv3sIOo74zPUsTbB-29" value="Del" style="whiteSpace=wrap;glass=0;rounded=1;shadow=0;textShadow=0;rotation=-15;direction=west;strokeWidth=2;perimeterSpacing=2;flipV=1;flipH=1;fontFamily=Comic Sans MS;fontStyle=0;fillColor=#FFFFFF;fontSize=12;" parent="_eD-Y539RmsAj1h9kYog-43" vertex="1">
          <mxGeometry x="223" y="121" width="30" height="30" as="geometry" />
        </mxCell>
        <mxCell id="4NZfBltiFIq9Cb83Nm9F-2" value="," style="glass=0;rounded=1;shadow=0;textShadow=0;strokeWidth=1;perimeterSpacing=0;flipV=1;flipH=1;fontSize=10;opacity=80;fillColor=#FFFFFF;verticalAlign=middle;fontFamily=Comic Sans MS;fontStyle=0;strokeColor=#000000;labelBackgroundColor=none;labelBorderColor=none;whiteSpace=wrap;align=center;fontColor=default;" parent="_eD-Y539RmsAj1h9kYog-43" vertex="1">
          <mxGeometry x="262" y="86" width="15" height="15" as="geometry" />
        </mxCell>
        <mxCell id="_eD-Y539RmsAj1h9kYog-57" value="" style="group;fillColor=#FF8000;opacity=10;fontFamily=Comic Sans MS;fontStyle=0;" parent="1" vertex="1" connectable="0">
          <mxGeometry x="-370" y="458" width="370" height="170" as="geometry" />
        </mxCell>
        <mxCell id="_eD-Y539RmsAj1h9kYog-55" value="&lt;font color=&quot;#ff8000&quot; style=&quot;font-size: 15px;&quot;&gt;fun&lt;/font&gt;" style="rounded=1;whiteSpace=wrap;html=1;strokeWidth=2;fillColor=none;strokeColor=#FF8000;fontFamily=Comic Sans MS;fontStyle=0;" parent="_eD-Y539RmsAj1h9kYog-57" vertex="1">
          <mxGeometry width="370" height="170" as="geometry" />
        </mxCell>
        <mxCell id="Ht8cUeteIGSEXaey3JQ4-136" value="" style="whiteSpace=wrap;glass=0;rounded=1;shadow=0;textShadow=0;fontSize=12;strokeWidth=2;perimeterSpacing=2;flipV=1;flipH=1;fontFamily=Comic Sans MS;fontStyle=0;" parent="_eD-Y539RmsAj1h9kYog-57" vertex="1">
          <mxGeometry x="13" y="63" width="30" height="30" as="geometry" />
        </mxCell>
        <mxCell id="Ht8cUeteIGSEXaey3JQ4-138" value="" style="whiteSpace=wrap;glass=0;rounded=1;shadow=0;textShadow=0;strokeWidth=2;perimeterSpacing=2;flipV=1;flipH=1;fontFamily=Comic Sans MS;fontStyle=0;fontSize=12;" parent="_eD-Y539RmsAj1h9kYog-57" vertex="1">
          <mxGeometry x="43" y="50" width="30" height="30" as="geometry" />
        </mxCell>
        <mxCell id="Ht8cUeteIGSEXaey3JQ4-139" value="" style="whiteSpace=wrap;glass=0;rounded=1;shadow=0;textShadow=0;strokeWidth=2;perimeterSpacing=2;flipV=1;flipH=1;fontFamily=Comic Sans MS;fontStyle=0;fontSize=12;" parent="_eD-Y539RmsAj1h9kYog-57" vertex="1">
          <mxGeometry x="43" y="80" width="30" height="30" as="geometry" />
        </mxCell>
        <mxCell id="Ht8cUeteIGSEXaey3JQ4-140" value="" style="whiteSpace=wrap;glass=0;rounded=1;shadow=0;textShadow=0;strokeWidth=2;perimeterSpacing=2;flipV=1;flipH=1;fontFamily=Comic Sans MS;fontStyle=0;fontSize=12;" parent="_eD-Y539RmsAj1h9kYog-57" vertex="1">
          <mxGeometry x="73" y="40" width="30" height="30" as="geometry" />
        </mxCell>
        <mxCell id="Ht8cUeteIGSEXaey3JQ4-141" value="" style="whiteSpace=wrap;glass=0;rounded=1;shadow=0;textShadow=0;fontSize=12;strokeWidth=2;perimeterSpacing=2;flipV=1;flipH=1;fontFamily=Comic Sans MS;fontStyle=0;" parent="_eD-Y539RmsAj1h9kYog-57" vertex="1">
          <mxGeometry x="103" y="50" width="30" height="30" as="geometry" />
        </mxCell>
        <mxCell id="Ht8cUeteIGSEXaey3JQ4-142" value="" style="whiteSpace=wrap;glass=0;rounded=1;shadow=0;textShadow=0;strokeWidth=2;perimeterSpacing=2;flipV=1;flipH=1;fontFamily=Comic Sans MS;fontStyle=0;fontSize=12;" parent="_eD-Y539RmsAj1h9kYog-57" vertex="1">
          <mxGeometry x="73" y="70" width="30" height="30" as="geometry" />
        </mxCell>
        <mxCell id="Ht8cUeteIGSEXaey3JQ4-143" value="" style="whiteSpace=wrap;glass=0;rounded=1;shadow=0;textShadow=0;strokeWidth=2;perimeterSpacing=2;flipV=1;flipH=1;fontFamily=Comic Sans MS;fontStyle=0;fontSize=12;" parent="_eD-Y539RmsAj1h9kYog-57" vertex="1">
          <mxGeometry x="103" y="80" width="30" height="30" as="geometry" />
        </mxCell>
        <mxCell id="Ht8cUeteIGSEXaey3JQ4-144" value="" style="whiteSpace=wrap;glass=0;rounded=1;shadow=0;textShadow=0;strokeWidth=2;perimeterSpacing=2;flipV=1;flipH=1;fontFamily=Comic Sans MS;fontStyle=0;fontSize=12;fillColor=#FFFFFF;" parent="_eD-Y539RmsAj1h9kYog-57" vertex="1">
          <mxGeometry x="43" y="20" width="30" height="30" as="geometry" />
        </mxCell>
        <mxCell id="Ht8cUeteIGSEXaey3JQ4-145" value="" style="whiteSpace=wrap;glass=0;rounded=1;shadow=0;textShadow=0;fontSize=12;strokeWidth=2;perimeterSpacing=2;flipV=1;flipH=1;fontFamily=Comic Sans MS;fontStyle=0;fillColor=#FFFFFF;" parent="_eD-Y539RmsAj1h9kYog-57" vertex="1">
          <mxGeometry x="73" y="10" width="30" height="30" as="geometry" />
        </mxCell>
        <mxCell id="Ht8cUeteIGSEXaey3JQ4-146" value="" style="whiteSpace=wrap;glass=0;rounded=1;shadow=0;textShadow=0;strokeWidth=2;perimeterSpacing=2;flipV=1;flipH=1;fontFamily=Comic Sans MS;fontStyle=0;fontSize=12;fillColor=#FFFFFF;" parent="_eD-Y539RmsAj1h9kYog-57" vertex="1">
          <mxGeometry x="103" y="20" width="30" height="30" as="geometry" />
        </mxCell>
        <mxCell id="Ht8cUeteIGSEXaey3JQ4-147" value="" style="whiteSpace=wrap;glass=0;rounded=1;shadow=0;textShadow=0;strokeWidth=2;perimeterSpacing=2;flipV=1;flipH=1;fontFamily=Comic Sans MS;fontStyle=0;" parent="_eD-Y539RmsAj1h9kYog-57" vertex="1">
          <mxGeometry x="133" y="50" width="30" height="30" as="geometry" />
        </mxCell>
        <mxCell id="Ht8cUeteIGSEXaey3JQ4-149" value="" style="whiteSpace=wrap;glass=0;rounded=1;shadow=0;textShadow=0;strokeWidth=2;perimeterSpacing=2;flipV=1;flipH=1;fontFamily=Comic Sans MS;fontStyle=0;fontSize=12;" parent="_eD-Y539RmsAj1h9kYog-57" vertex="1">
          <mxGeometry x="212" y="50" width="30" height="30" as="geometry" />
        </mxCell>
        <mxCell id="Ht8cUeteIGSEXaey3JQ4-151" value="F4" style="whiteSpace=wrap;glass=0;rounded=1;shadow=0;textShadow=0;strokeWidth=2;perimeterSpacing=2;flipV=1;flipH=1;fontFamily=Comic Sans MS;fontStyle=0;fontSize=12;" parent="_eD-Y539RmsAj1h9kYog-57" vertex="1">
          <mxGeometry x="242" y="50" width="30" height="30" as="geometry" />
        </mxCell>
        <mxCell id="Ht8cUeteIGSEXaey3JQ4-152" value="F1" style="whiteSpace=wrap;glass=0;rounded=1;shadow=0;textShadow=0;strokeWidth=2;perimeterSpacing=2;flipV=1;flipH=1;fontFamily=Comic Sans MS;fontStyle=0;fontSize=12;" parent="_eD-Y539RmsAj1h9kYog-57" vertex="1">
          <mxGeometry x="242" y="80" width="30" height="30" as="geometry" />
        </mxCell>
        <mxCell id="Ht8cUeteIGSEXaey3JQ4-153" value="F7" style="whiteSpace=wrap;glass=0;rounded=1;shadow=0;textShadow=0;fontSize=12;strokeWidth=2;perimeterSpacing=2;flipV=1;flipH=1;fontFamily=Comic Sans MS;fontStyle=0;fillColor=#FFFFCC;" parent="_eD-Y539RmsAj1h9kYog-57" vertex="1">
          <mxGeometry x="242" y="20" width="30" height="30" as="geometry" />
        </mxCell>
        <mxCell id="Ht8cUeteIGSEXaey3JQ4-154" value="F5" style="whiteSpace=wrap;glass=0;rounded=1;shadow=0;textShadow=0;strokeWidth=2;perimeterSpacing=2;flipV=1;flipH=1;fontFamily=Comic Sans MS;fontStyle=0;fontSize=12;" parent="_eD-Y539RmsAj1h9kYog-57" vertex="1">
          <mxGeometry x="272" y="40" width="30" height="30" as="geometry" />
        </mxCell>
        <mxCell id="Ht8cUeteIGSEXaey3JQ4-155" value="F2" style="whiteSpace=wrap;glass=0;rounded=1;shadow=0;textShadow=0;strokeWidth=2;perimeterSpacing=2;flipV=1;flipH=1;fontFamily=Comic Sans MS;fontStyle=0;fontSize=12;" parent="_eD-Y539RmsAj1h9kYog-57" vertex="1">
          <mxGeometry x="272" y="70" width="30" height="30" as="geometry" />
        </mxCell>
        <mxCell id="Ht8cUeteIGSEXaey3JQ4-156" value="F8" style="whiteSpace=wrap;glass=0;rounded=1;shadow=0;textShadow=0;strokeWidth=2;perimeterSpacing=2;flipV=1;flipH=1;fontFamily=Comic Sans MS;fontStyle=0;fontSize=12;fillColor=#FFFFCC;" parent="_eD-Y539RmsAj1h9kYog-57" vertex="1">
          <mxGeometry x="272" y="10" width="30" height="30" as="geometry" />
        </mxCell>
        <mxCell id="Ht8cUeteIGSEXaey3JQ4-157" value="F6" style="whiteSpace=wrap;glass=0;rounded=1;shadow=0;textShadow=0;strokeWidth=2;perimeterSpacing=2;flipV=1;flipH=1;fontFamily=Comic Sans MS;fontStyle=0;fontSize=12;" parent="_eD-Y539RmsAj1h9kYog-57" vertex="1">
          <mxGeometry x="302" y="50" width="30" height="30" as="geometry" />
        </mxCell>
        <mxCell id="Ht8cUeteIGSEXaey3JQ4-158" value="F3" style="whiteSpace=wrap;glass=0;rounded=1;shadow=0;textShadow=0;strokeWidth=2;perimeterSpacing=2;flipV=1;flipH=1;fontFamily=Comic Sans MS;fontStyle=0;fontSize=12;" parent="_eD-Y539RmsAj1h9kYog-57" vertex="1">
          <mxGeometry x="302" y="80" width="30" height="30" as="geometry" />
        </mxCell>
        <mxCell id="Ht8cUeteIGSEXaey3JQ4-159" value="F9" style="whiteSpace=wrap;glass=0;rounded=1;shadow=0;textShadow=0;strokeWidth=2;perimeterSpacing=2;flipV=1;flipH=1;fontFamily=Comic Sans MS;fontStyle=0;fontSize=12;fillColor=#FFFFCC;" parent="_eD-Y539RmsAj1h9kYog-57" vertex="1">
          <mxGeometry x="302" y="20" width="30" height="30" as="geometry" />
        </mxCell>
        <mxCell id="Ht8cUeteIGSEXaey3JQ4-160" value="" style="whiteSpace=wrap;glass=0;rounded=1;shadow=0;textShadow=0;strokeWidth=2;perimeterSpacing=2;flipV=1;flipH=1;fontFamily=Comic Sans MS;fontStyle=0;fontSize=12;" parent="_eD-Y539RmsAj1h9kYog-57" vertex="1">
          <mxGeometry x="332" y="63" width="30" height="30" as="geometry" />
        </mxCell>
        <mxCell id="Ht8cUeteIGSEXaey3JQ4-162" value="" style="whiteSpace=wrap;glass=0;rounded=1;shadow=0;textShadow=0;rotation=15;direction=west;labelBackgroundColor=none;fillColor=#FFFFFF;strokeWidth=2;perimeterSpacing=2;flipV=1;flipH=1;fontFamily=Comic Sans MS;fontStyle=0;" parent="_eD-Y539RmsAj1h9kYog-57" vertex="1">
          <mxGeometry x="116" y="118" width="30" height="30" as="geometry" />
        </mxCell>
        <mxCell id="Ht8cUeteIGSEXaey3JQ4-163" value="" style="whiteSpace=wrap;glass=0;rounded=1;shadow=0;textShadow=0;rotation=30;direction=north;strokeWidth=2;perimeterSpacing=2;flipV=1;flipH=1;fontFamily=Comic Sans MS;fontStyle=0;fillColor=#FF8000;" parent="_eD-Y539RmsAj1h9kYog-57" vertex="1">
          <mxGeometry x="147" y="130" width="30" height="30" as="geometry" />
        </mxCell>
        <mxCell id="Ht8cUeteIGSEXaey3JQ4-164" value="Bksp&#xa;word" style="whiteSpace=wrap;glass=0;rounded=1;shadow=0;textShadow=0;rotation=-30;direction=north;strokeWidth=2;perimeterSpacing=2;fontFamily=Comic Sans MS;fontStyle=0;fillColor=#FFFFFF;fontSize=11;" parent="_eD-Y539RmsAj1h9kYog-57" vertex="1">
          <mxGeometry x="195" y="130" width="30" height="30" as="geometry" />
        </mxCell>
        <mxCell id="Ht8cUeteIGSEXaey3JQ4-165" value="Del&#xa;word" style="whiteSpace=wrap;glass=0;rounded=1;shadow=0;textShadow=0;rotation=-15;direction=west;strokeWidth=2;perimeterSpacing=2;flipV=1;flipH=1;fontFamily=Comic Sans MS;fontStyle=0;fillColor=#FFFFFF;fontSize=11;" parent="_eD-Y539RmsAj1h9kYog-57" vertex="1">
          <mxGeometry x="226" y="118" width="30" height="30" as="geometry" />
        </mxCell>
        <mxCell id="SNldiJo-QRGiO5dAPmqx-1" value="F10" style="glass=0;rounded=1;shadow=0;textShadow=0;strokeWidth=1;perimeterSpacing=0;flipV=1;flipH=1;fontSize=7;opacity=80;fillColor=#FFFFFF;verticalAlign=middle;fontFamily=Comic Sans MS;fontStyle=0;strokeColor=#000000;labelBackgroundColor=none;labelBorderColor=none;whiteSpace=wrap;align=center;fontColor=default;" parent="_eD-Y539RmsAj1h9kYog-57" vertex="1">
          <mxGeometry x="264" y="22" width="15" height="15" as="geometry" />
        </mxCell>
        <mxCell id="SNldiJo-QRGiO5dAPmqx-2" value="F11" style="glass=0;rounded=1;shadow=0;textShadow=0;strokeWidth=1;perimeterSpacing=0;flipV=1;flipH=1;fontSize=7;opacity=80;fillColor=#FFFFFF;verticalAlign=middle;fontFamily=Comic Sans MS;fontStyle=0;strokeColor=#000000;labelBackgroundColor=none;labelBorderColor=none;whiteSpace=wrap;align=center;fontColor=default;" parent="_eD-Y539RmsAj1h9kYog-57" vertex="1">
          <mxGeometry x="295" y="22" width="15" height="15" as="geometry" />
        </mxCell>
        <mxCell id="5RLpgv3sIOo74zPUsTbB-1" value="F12" style="whiteSpace=wrap;glass=0;rounded=1;shadow=0;textShadow=0;strokeWidth=2;perimeterSpacing=2;flipV=1;flipH=1;fillColor=#FFFFCC;strokeColor=#BDBDBD;fontFamily=Comic Sans MS;fontStyle=0;" parent="_eD-Y539RmsAj1h9kYog-57" vertex="1">
          <mxGeometry x="199.25" y="9" width="30" height="30" as="geometry" />
        </mxCell>
        <mxCell id="_eD-Y539RmsAj1h9kYog-66" value="" style="group;fillColor=#FF33FF;opacity=10;fontFamily=Comic Sans MS;fontStyle=0;" parent="1" vertex="1" connectable="0">
          <mxGeometry x="386" y="285" width="370" height="170" as="geometry" />
        </mxCell>
        <mxCell id="_eD-Y539RmsAj1h9kYog-47" value="&lt;font color=&quot;#ff33ff&quot; style=&quot;font-size: 15px;&quot;&gt;sym&lt;/font&gt;" style="rounded=1;whiteSpace=wrap;html=1;fillColor=none;strokeWidth=2;shadow=1;strokeColor=#FF33FF;fontFamily=Comic Sans MS;fontStyle=0;" parent="_eD-Y539RmsAj1h9kYog-66" vertex="1">
          <mxGeometry x="1" y="-1" width="370" height="170" as="geometry" />
        </mxCell>
        <mxCell id="Ht8cUeteIGSEXaey3JQ4-76" value="*" style="whiteSpace=wrap;glass=0;rounded=1;shadow=0;textShadow=0;fontSize=12;strokeWidth=2;perimeterSpacing=2;flipV=1;flipH=1;fontFamily=Comic Sans MS;fontStyle=0;" parent="_eD-Y539RmsAj1h9kYog-66" vertex="1">
          <mxGeometry x="9" y="63" width="30" height="30" as="geometry" />
        </mxCell>
        <mxCell id="Ht8cUeteIGSEXaey3JQ4-78" value="+" style="whiteSpace=wrap;glass=0;rounded=1;shadow=0;textShadow=0;strokeWidth=2;perimeterSpacing=2;flipV=1;flipH=1;fontFamily=Comic Sans MS;fontStyle=0;fillColor=#FF33FF;" parent="_eD-Y539RmsAj1h9kYog-66" vertex="1">
          <mxGeometry x="39" y="50" width="30" height="30" as="geometry" />
        </mxCell>
        <mxCell id="Ht8cUeteIGSEXaey3JQ4-79" value="-" style="whiteSpace=wrap;glass=0;rounded=1;shadow=0;textShadow=0;strokeWidth=2;perimeterSpacing=2;flipV=1;flipH=1;fontFamily=Comic Sans MS;fontStyle=0;" parent="_eD-Y539RmsAj1h9kYog-66" vertex="1">
          <mxGeometry x="39" y="80" width="30" height="30" as="geometry" />
        </mxCell>
        <mxCell id="Ht8cUeteIGSEXaey3JQ4-80" value="=" style="whiteSpace=wrap;glass=0;rounded=1;shadow=0;textShadow=0;strokeWidth=2;perimeterSpacing=2;flipV=1;flipH=1;fontFamily=Comic Sans MS;fontStyle=0;" parent="_eD-Y539RmsAj1h9kYog-66" vertex="1">
          <mxGeometry x="69" y="40" width="30" height="30" as="geometry" />
        </mxCell>
        <mxCell id="Ht8cUeteIGSEXaey3JQ4-81" value="&quot;" style="whiteSpace=wrap;glass=0;rounded=1;shadow=0;textShadow=0;fontSize=12;strokeWidth=2;perimeterSpacing=2;flipV=1;flipH=1;fontFamily=Comic Sans MS;fontStyle=0;" parent="_eD-Y539RmsAj1h9kYog-66" vertex="1">
          <mxGeometry x="99" y="50" width="30" height="30" as="geometry" />
        </mxCell>
        <mxCell id="Ht8cUeteIGSEXaey3JQ4-82" value="&amp;" style="whiteSpace=wrap;glass=0;rounded=1;shadow=0;textShadow=0;strokeWidth=2;perimeterSpacing=2;flipV=1;flipH=1;fontFamily=Comic Sans MS;fontStyle=0;" parent="_eD-Y539RmsAj1h9kYog-66" vertex="1">
          <mxGeometry x="69" y="70" width="30" height="30" as="geometry" />
        </mxCell>
        <mxCell id="Ht8cUeteIGSEXaey3JQ4-83" value="`" style="whiteSpace=wrap;glass=0;rounded=1;shadow=0;textShadow=0;strokeWidth=2;perimeterSpacing=2;flipV=1;flipH=1;fontFamily=Comic Sans MS;fontStyle=0;" parent="_eD-Y539RmsAj1h9kYog-66" vertex="1">
          <mxGeometry x="99" y="80" width="30" height="30" as="geometry" />
        </mxCell>
        <mxCell id="Ht8cUeteIGSEXaey3JQ4-84" value="@" style="whiteSpace=wrap;glass=0;rounded=1;shadow=0;textShadow=0;strokeWidth=2;perimeterSpacing=2;flipV=1;flipH=1;fontFamily=Comic Sans MS;fontStyle=0;" parent="_eD-Y539RmsAj1h9kYog-66" vertex="1">
          <mxGeometry x="39" y="20" width="30" height="30" as="geometry" />
        </mxCell>
        <mxCell id="Ht8cUeteIGSEXaey3JQ4-85" value="£ &#xa;(uk)" style="whiteSpace=wrap;glass=0;rounded=1;shadow=0;textShadow=0;fontSize=12;strokeWidth=2;perimeterSpacing=2;flipV=1;flipH=1;fontFamily=Comic Sans MS;fontStyle=0;" parent="_eD-Y539RmsAj1h9kYog-66" vertex="1">
          <mxGeometry x="69" y="10" width="30" height="30" as="geometry" />
        </mxCell>
        <mxCell id="Ht8cUeteIGSEXaey3JQ4-86" value="$" style="whiteSpace=wrap;glass=0;rounded=1;shadow=0;textShadow=0;strokeWidth=2;perimeterSpacing=2;flipV=1;flipH=1;fontFamily=Comic Sans MS;fontStyle=0;" parent="_eD-Y539RmsAj1h9kYog-66" vertex="1">
          <mxGeometry x="99" y="20" width="30" height="30" as="geometry" />
        </mxCell>
        <mxCell id="Ht8cUeteIGSEXaey3JQ4-87" value="%" style="whiteSpace=wrap;glass=0;rounded=1;shadow=0;textShadow=0;strokeWidth=2;perimeterSpacing=2;flipV=1;flipH=1;fontFamily=Comic Sans MS;fontStyle=0;" parent="_eD-Y539RmsAj1h9kYog-66" vertex="1">
          <mxGeometry x="129" y="50" width="30" height="30" as="geometry" />
        </mxCell>
        <mxCell id="Ht8cUeteIGSEXaey3JQ4-89" value="!" style="whiteSpace=wrap;glass=0;rounded=1;shadow=0;textShadow=0;strokeWidth=2;perimeterSpacing=2;flipV=1;flipH=1;fontFamily=Comic Sans MS;fontStyle=0;" parent="_eD-Y539RmsAj1h9kYog-66" vertex="1">
          <mxGeometry x="208" y="50" width="30" height="30" as="geometry" />
        </mxCell>
        <mxCell id="Ht8cUeteIGSEXaey3JQ4-91" value=":" style="whiteSpace=wrap;glass=0;rounded=1;shadow=0;textShadow=0;strokeWidth=2;perimeterSpacing=2;flipV=1;flipH=1;fontFamily=Comic Sans MS;fontStyle=0;" parent="_eD-Y539RmsAj1h9kYog-66" vertex="1">
          <mxGeometry x="238" y="50" width="30" height="30" as="geometry" />
        </mxCell>
        <mxCell id="Ht8cUeteIGSEXaey3JQ4-92" value="&lt;" style="whiteSpace=wrap;glass=0;rounded=1;shadow=0;textShadow=0;strokeWidth=2;perimeterSpacing=2;flipV=1;flipH=1;fontFamily=Comic Sans MS;fontStyle=0;" parent="_eD-Y539RmsAj1h9kYog-66" vertex="1">
          <mxGeometry x="238" y="80" width="30" height="30" as="geometry" />
        </mxCell>
        <mxCell id="Ht8cUeteIGSEXaey3JQ4-93" value="\" style="whiteSpace=wrap;glass=0;rounded=1;shadow=0;textShadow=0;fontSize=12;strokeWidth=2;perimeterSpacing=2;flipV=1;flipH=1;fontFamily=Comic Sans MS;fontStyle=0;" parent="_eD-Y539RmsAj1h9kYog-66" vertex="1">
          <mxGeometry x="238" y="20" width="30" height="30" as="geometry" />
        </mxCell>
        <mxCell id="Ht8cUeteIGSEXaey3JQ4-94" value="# &#xa;(uk)" style="whiteSpace=wrap;glass=0;rounded=1;shadow=0;textShadow=0;strokeWidth=2;perimeterSpacing=2;flipV=1;flipH=1;fontFamily=Comic Sans MS;fontStyle=0;" parent="_eD-Y539RmsAj1h9kYog-66" vertex="1">
          <mxGeometry x="268" y="40" width="30" height="30" as="geometry" />
        </mxCell>
        <mxCell id="Ht8cUeteIGSEXaey3JQ4-95" value="&gt;" style="whiteSpace=wrap;glass=0;rounded=1;shadow=0;textShadow=0;strokeWidth=2;perimeterSpacing=2;flipV=1;flipH=1;fontFamily=Comic Sans MS;fontStyle=0;" parent="_eD-Y539RmsAj1h9kYog-66" vertex="1">
          <mxGeometry x="268" y="70" width="30" height="30" as="geometry" />
        </mxCell>
        <mxCell id="Ht8cUeteIGSEXaey3JQ4-96" value="/" style="whiteSpace=wrap;glass=0;rounded=1;shadow=0;textShadow=0;strokeWidth=2;perimeterSpacing=2;flipV=1;flipH=1;fontFamily=Comic Sans MS;fontStyle=0;" parent="_eD-Y539RmsAj1h9kYog-66" vertex="1">
          <mxGeometry x="268" y="10" width="30" height="30" as="geometry" />
        </mxCell>
        <mxCell id="Ht8cUeteIGSEXaey3JQ4-97" value="~" style="whiteSpace=wrap;glass=0;rounded=1;shadow=0;textShadow=0;strokeWidth=2;perimeterSpacing=2;flipV=1;flipH=1;fontFamily=Comic Sans MS;fontStyle=0;fillColor=#FF33FF;" parent="_eD-Y539RmsAj1h9kYog-66" vertex="1">
          <mxGeometry x="298" y="50" width="30" height="30" as="geometry" />
        </mxCell>
        <mxCell id="Ht8cUeteIGSEXaey3JQ4-98" value="-&gt;" style="whiteSpace=wrap;glass=0;rounded=1;shadow=0;textShadow=0;strokeWidth=2;perimeterSpacing=2;flipV=1;flipH=1;fontFamily=Comic Sans MS;fontStyle=0;" parent="_eD-Y539RmsAj1h9kYog-66" vertex="1">
          <mxGeometry x="298" y="80" width="30" height="30" as="geometry" />
        </mxCell>
        <mxCell id="Ht8cUeteIGSEXaey3JQ4-99" value="?" style="whiteSpace=wrap;glass=0;rounded=1;shadow=0;textShadow=0;strokeWidth=2;perimeterSpacing=2;flipV=1;flipH=1;fontFamily=Comic Sans MS;fontStyle=0;" parent="_eD-Y539RmsAj1h9kYog-66" vertex="1">
          <mxGeometry x="298" y="20" width="30" height="30" as="geometry" />
        </mxCell>
        <mxCell id="Ht8cUeteIGSEXaey3JQ4-100" value="|" style="whiteSpace=wrap;glass=0;rounded=1;shadow=0;textShadow=0;strokeWidth=2;perimeterSpacing=2;flipV=1;flipH=1;fontFamily=Comic Sans MS;fontStyle=0;" parent="_eD-Y539RmsAj1h9kYog-66" vertex="1">
          <mxGeometry x="328" y="63" width="30" height="30" as="geometry" />
        </mxCell>
        <mxCell id="Ht8cUeteIGSEXaey3JQ4-102" value="" style="whiteSpace=wrap;glass=0;rounded=1;shadow=0;textShadow=0;rotation=15;direction=west;labelBackgroundColor=none;fillColor=#FFFFFF;strokeWidth=2;perimeterSpacing=2;flipV=1;flipH=1;fontFamily=Comic Sans MS;fontStyle=0;" parent="_eD-Y539RmsAj1h9kYog-66" vertex="1">
          <mxGeometry x="112" y="118" width="30" height="30" as="geometry" />
        </mxCell>
        <mxCell id="Ht8cUeteIGSEXaey3JQ4-103" value="Spc" style="whiteSpace=wrap;glass=0;rounded=1;shadow=0;textShadow=0;rotation=30;direction=north;strokeWidth=2;perimeterSpacing=2;flipV=1;flipH=1;fontFamily=Comic Sans MS;fontStyle=0;" parent="_eD-Y539RmsAj1h9kYog-66" vertex="1">
          <mxGeometry x="143" y="130" width="30" height="30" as="geometry" />
        </mxCell>
        <mxCell id="Ht8cUeteIGSEXaey3JQ4-104" value="" style="whiteSpace=wrap;glass=0;rounded=1;shadow=0;textShadow=0;rotation=-30;direction=north;strokeWidth=2;perimeterSpacing=2;fontFamily=Comic Sans MS;fontStyle=0;" parent="_eD-Y539RmsAj1h9kYog-66" vertex="1">
          <mxGeometry x="191" y="130" width="30" height="30" as="geometry" />
        </mxCell>
        <mxCell id="Ht8cUeteIGSEXaey3JQ4-105" value="" style="whiteSpace=wrap;glass=0;rounded=1;shadow=0;textShadow=0;rotation=-15;direction=west;strokeWidth=2;perimeterSpacing=2;flipV=1;flipH=1;fontFamily=Comic Sans MS;fontStyle=0;fillColor=#FF33FF;gradientColor=none;" parent="_eD-Y539RmsAj1h9kYog-66" vertex="1">
          <mxGeometry x="222" y="118" width="30" height="30" as="geometry" />
        </mxCell>
        <mxCell id="_eD-Y539RmsAj1h9kYog-67" value="" style="group;fillColor=#3333FF;opacity=10;fontFamily=Comic Sans MS;fontStyle=0;" parent="1" vertex="1" connectable="0">
          <mxGeometry x="-371" y="284" width="370" height="170" as="geometry" />
        </mxCell>
        <mxCell id="_eD-Y539RmsAj1h9kYog-44" value="&lt;font color=&quot;#3333ff&quot; style=&quot;font-size: 15px;&quot;&gt;edit&lt;/font&gt;" style="rounded=1;whiteSpace=wrap;html=1;strokeWidth=2;shadow=1;fillColor=none;strokeColor=#3333FF;gradientColor=none;perimeterSpacing=0;fontFamily=Comic Sans MS;fontStyle=0;" parent="_eD-Y539RmsAj1h9kYog-67" vertex="1">
          <mxGeometry width="370" height="170" as="geometry" />
        </mxCell>
        <mxCell id="Ht8cUeteIGSEXaey3JQ4-33" value="cut" style="whiteSpace=wrap;glass=0;rounded=1;shadow=0;textShadow=0;strokeWidth=2;perimeterSpacing=2;flipV=1;flipH=1;fontFamily=Comic Sans MS;fontStyle=0;" parent="_eD-Y539RmsAj1h9kYog-67" vertex="1">
          <mxGeometry x="40" y="50" width="30" height="30" as="geometry" />
        </mxCell>
        <mxCell id="Ht8cUeteIGSEXaey3JQ4-34" value="sel. all + copy" style="whiteSpace=wrap;glass=0;rounded=1;shadow=0;textShadow=0;strokeWidth=2;perimeterSpacing=2;flipV=1;flipH=1;fontFamily=Comic Sans MS;fontStyle=0;fontSize=9;" parent="_eD-Y539RmsAj1h9kYog-67" vertex="1">
          <mxGeometry x="40" y="80" width="30" height="30" as="geometry" />
        </mxCell>
        <mxCell id="Ht8cUeteIGSEXaey3JQ4-35" value="copy&#xa;" style="whiteSpace=wrap;glass=0;rounded=1;shadow=0;textShadow=0;strokeWidth=2;perimeterSpacing=2;flipV=1;flipH=1;fontFamily=Comic Sans MS;fontStyle=0;" parent="_eD-Y539RmsAj1h9kYog-67" vertex="1">
          <mxGeometry x="70" y="40" width="30" height="30" as="geometry" />
        </mxCell>
        <mxCell id="Ht8cUeteIGSEXaey3JQ4-36" value="paste" style="whiteSpace=wrap;glass=0;rounded=1;shadow=0;textShadow=0;fontSize=11;strokeWidth=2;perimeterSpacing=2;flipV=1;flipH=1;fontFamily=Comic Sans MS;fontStyle=0;" parent="_eD-Y539RmsAj1h9kYog-67" vertex="1">
          <mxGeometry x="100" y="50" width="30" height="30" as="geometry" />
        </mxCell>
        <mxCell id="Ht8cUeteIGSEXaey3JQ4-37" value="undo" style="whiteSpace=wrap;glass=0;rounded=1;shadow=0;textShadow=0;strokeWidth=2;perimeterSpacing=2;flipV=1;flipH=1;fontFamily=Comic Sans MS;fontStyle=0;" parent="_eD-Y539RmsAj1h9kYog-67" vertex="1">
          <mxGeometry x="70" y="70" width="30" height="30" as="geometry" />
        </mxCell>
        <mxCell id="Ht8cUeteIGSEXaey3JQ4-38" value="redo" style="whiteSpace=wrap;glass=0;rounded=1;shadow=0;textShadow=0;strokeWidth=2;perimeterSpacing=2;flipV=1;flipH=1;fontFamily=Comic Sans MS;fontStyle=0;" parent="_eD-Y539RmsAj1h9kYog-67" vertex="1">
          <mxGeometry x="100" y="80" width="30" height="30" as="geometry" />
        </mxCell>
        <mxCell id="Ht8cUeteIGSEXaey3JQ4-39" value="search&#xa;prev" style="whiteSpace=wrap;glass=0;rounded=1;shadow=0;textShadow=0;strokeWidth=2;perimeterSpacing=2;flipV=1;flipH=1;fontFamily=Comic Sans MS;fontStyle=0;fontSize=9;" parent="_eD-Y539RmsAj1h9kYog-67" vertex="1">
          <mxGeometry x="40" y="20" width="30" height="30" as="geometry" />
        </mxCell>
        <mxCell id="Ht8cUeteIGSEXaey3JQ4-40" value="search" style="whiteSpace=wrap;glass=0;rounded=1;shadow=0;textShadow=0;fontSize=9;strokeWidth=2;perimeterSpacing=2;flipV=1;flipH=1;fontFamily=Comic Sans MS;fontStyle=0;" parent="_eD-Y539RmsAj1h9kYog-67" vertex="1">
          <mxGeometry x="70" y="10" width="30" height="30" as="geometry" />
        </mxCell>
        <mxCell id="Ht8cUeteIGSEXaey3JQ4-41" value="search&#xa;next" style="whiteSpace=wrap;glass=0;rounded=1;shadow=0;textShadow=0;strokeWidth=2;perimeterSpacing=2;flipV=1;flipH=1;fontFamily=Comic Sans MS;fontStyle=0;fontSize=9;" parent="_eD-Y539RmsAj1h9kYog-67" vertex="1">
          <mxGeometry x="100" y="20" width="30" height="30" as="geometry" />
        </mxCell>
        <mxCell id="Ht8cUeteIGSEXaey3JQ4-42" value="Ctrl C" style="whiteSpace=wrap;glass=0;rounded=1;shadow=0;textShadow=0;strokeWidth=2;perimeterSpacing=2;flipV=1;flipH=1;fontFamily=Comic Sans MS;fontStyle=0;" parent="_eD-Y539RmsAj1h9kYog-67" vertex="1">
          <mxGeometry x="130" y="50" width="29.25" height="30" as="geometry" />
        </mxCell>
        <mxCell id="Ht8cUeteIGSEXaey3JQ4-46" value="↓" style="whiteSpace=wrap;glass=0;rounded=1;shadow=0;textShadow=0;strokeWidth=2;perimeterSpacing=2;flipV=1;flipH=1;fontFamily=Comic Sans MS;fontStyle=0;" parent="_eD-Y539RmsAj1h9kYog-67" vertex="1">
          <mxGeometry x="239" y="50" width="30" height="30" as="geometry" />
        </mxCell>
        <mxCell id="Ht8cUeteIGSEXaey3JQ4-47" value="[" style="whiteSpace=wrap;glass=0;rounded=1;shadow=0;textShadow=0;strokeWidth=2;perimeterSpacing=2;flipV=1;flipH=1;fontFamily=Comic Sans MS;fontStyle=0;fontSize=12;" parent="_eD-Y539RmsAj1h9kYog-67" vertex="1">
          <mxGeometry x="239" y="80" width="30" height="30" as="geometry" />
        </mxCell>
        <mxCell id="Ht8cUeteIGSEXaey3JQ4-48" value="{" style="whiteSpace=wrap;glass=0;rounded=1;shadow=0;textShadow=0;fontSize=12;strokeWidth=2;perimeterSpacing=2;flipV=1;flipH=1;fontFamily=Comic Sans MS;fontStyle=0;" parent="_eD-Y539RmsAj1h9kYog-67" vertex="1">
          <mxGeometry x="239" y="20" width="30" height="30" as="geometry" />
        </mxCell>
        <mxCell id="Ht8cUeteIGSEXaey3JQ4-49" value="↑" style="whiteSpace=wrap;glass=0;rounded=1;shadow=0;textShadow=0;strokeWidth=2;perimeterSpacing=2;flipV=1;flipH=1;fontFamily=Comic Sans MS;fontStyle=0;" parent="_eD-Y539RmsAj1h9kYog-67" vertex="1">
          <mxGeometry x="269" y="40" width="30" height="30" as="geometry" />
        </mxCell>
        <mxCell id="Ht8cUeteIGSEXaey3JQ4-50" value="]" style="whiteSpace=wrap;glass=0;rounded=1;shadow=0;textShadow=0;strokeWidth=2;perimeterSpacing=2;flipV=1;flipH=1;fontFamily=Comic Sans MS;fontStyle=0;" parent="_eD-Y539RmsAj1h9kYog-67" vertex="1">
          <mxGeometry x="269" y="70" width="30" height="30" as="geometry" />
        </mxCell>
        <mxCell id="Ht8cUeteIGSEXaey3JQ4-51" value="}" style="whiteSpace=wrap;glass=0;rounded=1;shadow=0;textShadow=0;strokeWidth=2;perimeterSpacing=2;flipV=1;flipH=1;fontFamily=Comic Sans MS;fontStyle=0;gradientColor=none;gradientDirection=radial;fontSize=12;" parent="_eD-Y539RmsAj1h9kYog-67" vertex="1">
          <mxGeometry x="269.25" y="10" width="30" height="30" as="geometry" />
        </mxCell>
        <mxCell id="Ht8cUeteIGSEXaey3JQ4-53" value="" style="whiteSpace=wrap;glass=0;rounded=1;shadow=0;textShadow=0;strokeWidth=2;perimeterSpacing=2;flipV=1;flipH=1;fontFamily=Comic Sans MS;fontStyle=0;fontSize=12;" parent="_eD-Y539RmsAj1h9kYog-67" vertex="1">
          <mxGeometry x="299" y="80" width="30" height="30" as="geometry" />
        </mxCell>
        <mxCell id="Ht8cUeteIGSEXaey3JQ4-54" value="" style="whiteSpace=wrap;glass=0;rounded=1;shadow=0;textShadow=0;strokeWidth=2;perimeterSpacing=2;flipV=1;flipH=1;fontFamily=Comic Sans MS;fontStyle=0;fontSize=9;" parent="_eD-Y539RmsAj1h9kYog-67" vertex="1">
          <mxGeometry x="299" y="20" width="30" height="30" as="geometry" />
        </mxCell>
        <mxCell id="Ht8cUeteIGSEXaey3JQ4-55" value="" style="whiteSpace=wrap;glass=0;rounded=1;shadow=0;textShadow=0;strokeWidth=2;perimeterSpacing=2;flipV=1;flipH=1;fontFamily=Comic Sans MS;fontStyle=0;" parent="_eD-Y539RmsAj1h9kYog-67" vertex="1">
          <mxGeometry x="329" y="63" width="30" height="30" as="geometry" />
        </mxCell>
        <mxCell id="Ht8cUeteIGSEXaey3JQ4-57" value="" style="whiteSpace=wrap;glass=0;rounded=1;shadow=0;textShadow=0;rotation=15;direction=west;labelBackgroundColor=none;fillColor=#3333FF;strokeWidth=2;perimeterSpacing=2;flipV=1;flipH=1;fontFamily=Comic Sans MS;fontStyle=0;" parent="_eD-Y539RmsAj1h9kYog-67" vertex="1">
          <mxGeometry x="113" y="118" width="30" height="30" as="geometry" />
        </mxCell>
        <mxCell id="Ht8cUeteIGSEXaey3JQ4-58" value="" style="whiteSpace=wrap;glass=0;rounded=1;shadow=0;textShadow=0;rotation=30;direction=north;strokeWidth=2;perimeterSpacing=2;flipV=1;flipH=1;fontFamily=Comic Sans MS;fontStyle=0;" parent="_eD-Y539RmsAj1h9kYog-67" vertex="1">
          <mxGeometry x="144" y="130" width="30" height="30" as="geometry" />
        </mxCell>
        <mxCell id="Ht8cUeteIGSEXaey3JQ4-59" value="Bksp" style="whiteSpace=wrap;glass=0;rounded=1;shadow=0;textShadow=0;rotation=-30;direction=north;strokeWidth=2;perimeterSpacing=2;fontFamily=Comic Sans MS;fontStyle=0;" parent="_eD-Y539RmsAj1h9kYog-67" vertex="1">
          <mxGeometry x="192" y="130" width="30" height="30" as="geometry" />
        </mxCell>
        <mxCell id="Ht8cUeteIGSEXaey3JQ4-60" value="Del" style="whiteSpace=wrap;glass=0;rounded=1;shadow=0;textShadow=0;rotation=-15;direction=west;strokeWidth=2;perimeterSpacing=2;flipV=1;flipH=1;fontFamily=Comic Sans MS;fontStyle=0;" parent="_eD-Y539RmsAj1h9kYog-67" vertex="1">
          <mxGeometry x="223" y="118" width="30" height="30" as="geometry" />
        </mxCell>
        <mxCell id="W65jjInmlXqQC7ASUcbz-2" value="" style="group;fontSize=18;fontColor=#FF0080;fontFamily=Comic Sans MS;fontStyle=0;" parent="_eD-Y539RmsAj1h9kYog-67" vertex="1" connectable="0">
          <mxGeometry x="10" y="63" width="30" height="30" as="geometry" />
        </mxCell>
        <mxCell id="Ht8cUeteIGSEXaey3JQ4-31" value="select all" style="whiteSpace=wrap;glass=0;rounded=1;shadow=0;textShadow=0;fontSize=12;strokeWidth=2;perimeterSpacing=2;flipV=1;flipH=1;fontFamily=Comic Sans MS;fontStyle=0;fontColor=#000000;" parent="W65jjInmlXqQC7ASUcbz-2" vertex="1">
          <mxGeometry width="30" height="30" as="geometry" />
        </mxCell>
        <mxCell id="W65jjInmlXqQC7ASUcbz-6" value="" style="group;fontFamily=Comic Sans MS;fontStyle=0;" parent="_eD-Y539RmsAj1h9kYog-67" vertex="1" connectable="0">
          <mxGeometry x="209" y="50" width="30" height="30" as="geometry" />
        </mxCell>
        <mxCell id="Ht8cUeteIGSEXaey3JQ4-44" value="←&#xa;" style="whiteSpace=wrap;glass=0;rounded=1;shadow=0;textShadow=0;strokeWidth=2;perimeterSpacing=2;flipV=1;flipH=1;fontFamily=Comic Sans MS;fontStyle=0;" parent="W65jjInmlXqQC7ASUcbz-6" vertex="1">
          <mxGeometry width="30" height="30" as="geometry" />
        </mxCell>
        <mxCell id="sCklD57sjOlG95tGdwZi-3" value="&amp;nbsp;prev&amp;nbsp;&lt;div style=&quot;font-size: 7px;&quot;&gt;word&lt;/div&gt;" style="text;html=1;align=right;verticalAlign=middle;whiteSpace=wrap;rounded=0;fontFamily=Comic Sans MS;fontSize=7;fontColor=#FF0080;fontStyle=2;" parent="W65jjInmlXqQC7ASUcbz-6" vertex="1">
          <mxGeometry x="-8" y="15" width="35" height="10" as="geometry" />
        </mxCell>
        <mxCell id="W65jjInmlXqQC7ASUcbz-7" value="" style="group;fontSize=10;labelBackgroundColor=default;fontFamily=Comic Sans MS;fontStyle=0;" parent="_eD-Y539RmsAj1h9kYog-67" vertex="1" connectable="0">
          <mxGeometry x="299" y="50" width="30" height="30" as="geometry" />
        </mxCell>
        <mxCell id="Ht8cUeteIGSEXaey3JQ4-52" value="→&#xa;" style="whiteSpace=wrap;glass=0;rounded=1;shadow=0;textShadow=0;strokeWidth=2;perimeterSpacing=2;flipV=1;flipH=1;fontFamily=Comic Sans MS;fontStyle=0;fontSize=11;" parent="W65jjInmlXqQC7ASUcbz-7" vertex="1">
          <mxGeometry width="30" height="30" as="geometry" />
        </mxCell>
        <mxCell id="sCklD57sjOlG95tGdwZi-4" value="next&amp;nbsp;&lt;div style=&quot;font-size: 7px;&quot;&gt;word&lt;/div&gt;" style="text;html=1;align=right;verticalAlign=middle;whiteSpace=wrap;rounded=0;fontFamily=Comic Sans MS;fontSize=7;fontColor=#FF0080;fontStyle=2;" parent="W65jjInmlXqQC7ASUcbz-7" vertex="1">
          <mxGeometry x="-7" y="15" width="35" height="10" as="geometry" />
        </mxCell>
        <mxCell id="MceUDlZtOFOat2aFnNCN-77" style="edgeStyle=orthogonalEdgeStyle;rounded=0;orthogonalLoop=1;jettySize=auto;html=1;exitX=0.5;exitY=0;exitDx=0;exitDy=0;entryX=0.51;entryY=0.108;entryDx=0;entryDy=0;entryPerimeter=0;fontFamily=Comic Sans MS;fontStyle=0;" parent="_eD-Y539RmsAj1h9kYog-67" source="Ht8cUeteIGSEXaey3JQ4-49" target="Ht8cUeteIGSEXaey3JQ4-51" edge="1">
          <mxGeometry relative="1" as="geometry" />
        </mxCell>
        <mxCell id="_eD-Y539RmsAj1h9kYog-68" value="" style="group;fillColor=#00CCCC;opacity=10;fontFamily=Comic Sans MS;fontStyle=0;" parent="1" vertex="1" connectable="0">
          <mxGeometry x="5" y="284" width="376" height="170" as="geometry" />
        </mxCell>
        <mxCell id="_eD-Y539RmsAj1h9kYog-62" value="&lt;font color=&quot;#00cccc&quot; style=&quot;font-size: 15px;&quot;&gt;sys&lt;/font&gt;" style="rounded=1;whiteSpace=wrap;html=1;fillColor=none;strokeWidth=2;shadow=1;strokeColor=#00CCCC;fontFamily=Comic Sans MS;fontStyle=0;" parent="_eD-Y539RmsAj1h9kYog-68" vertex="1">
          <mxGeometry width="376" height="170" as="geometry" />
        </mxCell>
        <mxCell id="_eD-Y539RmsAj1h9kYog-53" value="" style="group;fontFamily=Comic Sans MS;fontStyle=0;" parent="_eD-Y539RmsAj1h9kYog-68" vertex="1" connectable="0">
          <mxGeometry width="376" height="170" as="geometry" />
        </mxCell>
        <mxCell id="Ht8cUeteIGSEXaey3JQ4-106" value="light hue -" style="whiteSpace=wrap;glass=0;rounded=1;shadow=0;textShadow=0;fontSize=10;strokeWidth=2;perimeterSpacing=2;flipV=1;flipH=1;fontFamily=Comic Sans MS;fontStyle=0;" parent="_eD-Y539RmsAj1h9kYog-53" vertex="1">
          <mxGeometry x="18.479685452162517" y="63" width="29.567496723460025" height="30" as="geometry" />
        </mxCell>
        <mxCell id="Ht8cUeteIGSEXaey3JQ4-108" value="screen bright +" style="whiteSpace=wrap;glass=0;rounded=1;shadow=0;textShadow=0;strokeWidth=2;perimeterSpacing=2;flipV=1;flipH=1;fontFamily=Comic Sans MS;fontStyle=0;fontSize=9;gradientColor=none;fillColor=#FFFFCC;" parent="_eD-Y539RmsAj1h9kYog-53" vertex="1">
          <mxGeometry x="48.04718217562254" y="50" width="29.567496723460025" height="30" as="geometry" />
        </mxCell>
        <mxCell id="Ht8cUeteIGSEXaey3JQ4-109" value="screen bright -" style="whiteSpace=wrap;glass=0;rounded=1;shadow=0;textShadow=0;strokeWidth=2;perimeterSpacing=2;flipV=1;flipH=1;fontFamily=Comic Sans MS;fontStyle=0;fontSize=9;" parent="_eD-Y539RmsAj1h9kYog-53" vertex="1">
          <mxGeometry x="48.04718217562254" y="80" width="29.567496723460025" height="30" as="geometry" />
        </mxCell>
        <mxCell id="Ht8cUeteIGSEXaey3JQ4-110" value="scroll down" style="whiteSpace=wrap;glass=0;rounded=1;shadow=0;textShadow=0;strokeWidth=2;perimeterSpacing=2;flipV=1;flipH=1;fontFamily=Comic Sans MS;fontStyle=0;fontSize=10;align=center;fillColor=#FFFFCC;gradientColor=#E6D0DE;gradientDirection=west;" parent="_eD-Y539RmsAj1h9kYog-53" vertex="1">
          <mxGeometry x="77.61467889908256" y="40" width="29.567496723460025" height="30" as="geometry" />
        </mxCell>
        <mxCell id="Ht8cUeteIGSEXaey3JQ4-111" value="scroll up" style="whiteSpace=wrap;glass=0;rounded=1;shadow=0;textShadow=0;fontSize=10;strokeWidth=2;perimeterSpacing=2;flipV=1;flipH=1;fontFamily=Comic Sans MS;fontStyle=0;align=center;fillColor=#E6D0DE;" parent="_eD-Y539RmsAj1h9kYog-53" vertex="1">
          <mxGeometry x="107.18217562254259" y="50" width="29.567496723460025" height="30" as="geometry" />
        </mxCell>
        <mxCell id="Ht8cUeteIGSEXaey3JQ4-112" value="light sat -" style="whiteSpace=wrap;glass=0;rounded=1;shadow=0;textShadow=0;strokeWidth=2;perimeterSpacing=2;flipV=1;flipH=1;fontFamily=Comic Sans MS;fontStyle=0;fontSize=10;" parent="_eD-Y539RmsAj1h9kYog-53" vertex="1">
          <mxGeometry x="77.61467889908256" y="70" width="29.567496723460025" height="30" as="geometry" />
        </mxCell>
        <mxCell id="Ht8cUeteIGSEXaey3JQ4-113" value="light sat +" style="whiteSpace=wrap;glass=0;rounded=1;shadow=0;textShadow=0;strokeWidth=2;perimeterSpacing=2;flipV=1;flipH=1;fontFamily=Comic Sans MS;fontStyle=0;fontSize=10;" parent="_eD-Y539RmsAj1h9kYog-53" vertex="1">
          <mxGeometry x="107.18217562254259" y="80" width="29.567496723460025" height="30" as="geometry" />
        </mxCell>
        <mxCell id="Ht8cUeteIGSEXaey3JQ4-114" value="" style="whiteSpace=wrap;glass=0;rounded=1;shadow=0;textShadow=0;strokeWidth=2;perimeterSpacing=2;flipV=1;flipH=1;fontFamily=Comic Sans MS;fontStyle=0;fontSize=9;" parent="_eD-Y539RmsAj1h9kYog-53" vertex="1">
          <mxGeometry x="48.04718217562254" y="20" width="29.567496723460025" height="30" as="geometry" />
        </mxCell>
        <mxCell id="Ht8cUeteIGSEXaey3JQ4-115" value="prev" style="whiteSpace=wrap;glass=0;rounded=1;shadow=0;textShadow=0;fontSize=12;strokeWidth=2;perimeterSpacing=2;flipV=1;flipH=1;fontFamily=Comic Sans MS;fontStyle=0;" parent="_eD-Y539RmsAj1h9kYog-53" vertex="1">
          <mxGeometry x="77.61467889908256" y="10" width="29.567496723460025" height="30" as="geometry" />
        </mxCell>
        <mxCell id="Ht8cUeteIGSEXaey3JQ4-116" value="next" style="whiteSpace=wrap;glass=0;rounded=1;shadow=0;textShadow=0;strokeWidth=2;perimeterSpacing=2;flipV=1;flipH=1;fontFamily=Comic Sans MS;fontStyle=0;" parent="_eD-Y539RmsAj1h9kYog-53" vertex="1">
          <mxGeometry x="107.18217562254259" y="20" width="29.567496723460025" height="30" as="geometry" />
        </mxCell>
        <mxCell id="Ht8cUeteIGSEXaey3JQ4-117" value="" style="whiteSpace=wrap;glass=0;rounded=1;shadow=0;textShadow=0;strokeWidth=2;perimeterSpacing=2;flipV=1;flipH=1;fontFamily=Comic Sans MS;fontStyle=0;" parent="_eD-Y539RmsAj1h9kYog-53" vertex="1">
          <mxGeometry x="136.74967234600263" y="50" width="29.567496723460025" height="30" as="geometry" />
        </mxCell>
        <mxCell id="Ht8cUeteIGSEXaey3JQ4-119" value="mouse left" style="whiteSpace=wrap;glass=0;rounded=1;shadow=0;textShadow=0;strokeWidth=2;perimeterSpacing=2;flipV=1;flipH=1;fontFamily=Comic Sans MS;fontStyle=0;fontSize=9;" parent="_eD-Y539RmsAj1h9kYog-53" vertex="1">
          <mxGeometry x="214.610747051114" y="50" width="29.567496723460025" height="30" as="geometry" />
        </mxCell>
        <mxCell id="Ht8cUeteIGSEXaey3JQ4-121" value="mouse down" style="whiteSpace=wrap;glass=0;rounded=1;shadow=0;textShadow=0;strokeWidth=2;perimeterSpacing=2;flipV=1;flipH=1;fontFamily=Comic Sans MS;fontStyle=0;fontSize=9;align=center;fillColor=#FFFFFF;" parent="_eD-Y539RmsAj1h9kYog-53" vertex="1">
          <mxGeometry x="244.17824377457404" y="50" width="29.567496723460025" height="30" as="geometry" />
        </mxCell>
        <mxCell id="Ht8cUeteIGSEXaey3JQ4-122" value="zoom -" style="whiteSpace=wrap;glass=0;rounded=1;shadow=0;textShadow=0;strokeWidth=2;perimeterSpacing=2;flipV=1;flipH=1;fontFamily=Comic Sans MS;fontStyle=0;fontSize=10;" parent="_eD-Y539RmsAj1h9kYog-53" vertex="1">
          <mxGeometry x="244.17824377457404" y="80" width="29.567496723460025" height="30" as="geometry" />
        </mxCell>
        <mxCell id="Ht8cUeteIGSEXaey3JQ4-123" value="vol -" style="whiteSpace=wrap;glass=0;rounded=1;shadow=0;textShadow=0;fontSize=12;strokeWidth=2;perimeterSpacing=2;flipV=1;flipH=1;fontFamily=Comic Sans MS;fontStyle=0;" parent="_eD-Y539RmsAj1h9kYog-53" vertex="1">
          <mxGeometry x="244.17824377457404" y="20" width="29.567496723460025" height="30" as="geometry" />
        </mxCell>
        <mxCell id="Ht8cUeteIGSEXaey3JQ4-124" value="mouse up" style="whiteSpace=wrap;glass=0;rounded=1;shadow=0;textShadow=0;strokeWidth=2;perimeterSpacing=2;flipV=1;flipH=1;fontFamily=Comic Sans MS;fontStyle=0;fontSize=9;align=center;fillColor=#FFFFCC;" parent="_eD-Y539RmsAj1h9kYog-53" vertex="1">
          <mxGeometry x="273.7457404980341" y="40" width="29.567496723460025" height="30" as="geometry" />
        </mxCell>
        <mxCell id="Ht8cUeteIGSEXaey3JQ4-125" value="zoom +" style="whiteSpace=wrap;glass=0;rounded=1;shadow=0;textShadow=0;strokeWidth=2;perimeterSpacing=2;flipV=1;flipH=1;fontFamily=Comic Sans MS;fontStyle=0;fontSize=10;" parent="_eD-Y539RmsAj1h9kYog-53" vertex="1">
          <mxGeometry x="273.7457404980341" y="70" width="29.567496723460025" height="30" as="geometry" />
        </mxCell>
        <mxCell id="Ht8cUeteIGSEXaey3JQ4-126" value="vol +" style="whiteSpace=wrap;glass=0;rounded=1;shadow=0;textShadow=0;strokeWidth=2;perimeterSpacing=2;flipV=1;flipH=1;fontFamily=Comic Sans MS;fontStyle=0;" parent="_eD-Y539RmsAj1h9kYog-53" vertex="1">
          <mxGeometry x="273.7457404980341" y="10" width="29.567496723460025" height="30" as="geometry" />
        </mxCell>
        <mxCell id="Ht8cUeteIGSEXaey3JQ4-127" value="mouse right" style="whiteSpace=wrap;glass=0;rounded=1;shadow=0;textShadow=0;strokeWidth=2;perimeterSpacing=2;flipV=1;flipH=1;fontFamily=Comic Sans MS;fontStyle=0;fontSize=9;fillColor=#FFFFCC;" parent="_eD-Y539RmsAj1h9kYog-53" vertex="1">
          <mxGeometry x="303.3132372214941" y="50" width="29.567496723460025" height="30" as="geometry" />
        </mxCell>
        <mxCell id="Ht8cUeteIGSEXaey3JQ4-128" value="" style="whiteSpace=wrap;glass=0;rounded=1;shadow=0;textShadow=0;strokeWidth=2;perimeterSpacing=2;flipV=1;flipH=1;fontFamily=Comic Sans MS;fontStyle=0;" parent="_eD-Y539RmsAj1h9kYog-53" vertex="1">
          <mxGeometry x="303.3132372214941" y="80" width="29.567496723460025" height="30" as="geometry" />
        </mxCell>
        <mxCell id="Ht8cUeteIGSEXaey3JQ4-129" value="mute" style="whiteSpace=wrap;glass=0;rounded=1;shadow=0;textShadow=0;strokeWidth=2;perimeterSpacing=2;flipV=1;flipH=1;fontFamily=Comic Sans MS;fontStyle=0;" parent="_eD-Y539RmsAj1h9kYog-53" vertex="1">
          <mxGeometry x="303.3132372214941" y="20" width="29.567496723460025" height="30" as="geometry" />
        </mxCell>
        <mxCell id="Ht8cUeteIGSEXaey3JQ4-130" value="light hue +" style="whiteSpace=wrap;glass=0;rounded=1;shadow=0;textShadow=0;strokeWidth=2;perimeterSpacing=2;flipV=1;flipH=1;fontFamily=Comic Sans MS;fontStyle=0;fontSize=10;" parent="_eD-Y539RmsAj1h9kYog-53" vertex="1">
          <mxGeometry x="332.8807339449541" y="63" width="29.567496723460025" height="30" as="geometry" />
        </mxCell>
        <mxCell id="Ht8cUeteIGSEXaey3JQ4-132" value="mouse click 2" style="whiteSpace=wrap;glass=0;rounded=1;shadow=0;textShadow=0;rotation=15;direction=west;labelBackgroundColor=none;fillColor=#FFFFFF;strokeWidth=2;perimeterSpacing=2;flipV=1;flipH=1;fontFamily=Comic Sans MS;fontStyle=0;fontSize=9;" parent="_eD-Y539RmsAj1h9kYog-53" vertex="1">
          <mxGeometry x="119.99475753604193" y="118" width="29.567496723460025" height="30" as="geometry" />
        </mxCell>
        <mxCell id="Ht8cUeteIGSEXaey3JQ4-133" value="mouse click 1" style="whiteSpace=wrap;glass=0;rounded=1;shadow=0;textShadow=0;rotation=30;direction=north;strokeWidth=2;perimeterSpacing=2;flipV=1;flipH=1;fontFamily=Comic Sans MS;fontStyle=0;fontSize=9;" parent="_eD-Y539RmsAj1h9kYog-53" vertex="1">
          <mxGeometry x="150.5478374836173" y="130" width="29.567496723460025" height="30" as="geometry" />
        </mxCell>
        <mxCell id="Ht8cUeteIGSEXaey3JQ4-134" value="" style="whiteSpace=wrap;glass=0;rounded=1;shadow=0;textShadow=0;rotation=-30;direction=north;strokeWidth=2;perimeterSpacing=2;fontFamily=Comic Sans MS;fontStyle=0;fillColor=#00CCCC;" parent="_eD-Y539RmsAj1h9kYog-53" vertex="1">
          <mxGeometry x="197.85583224115334" y="130" width="29.567496723460025" height="30" as="geometry" />
        </mxCell>
        <mxCell id="Ht8cUeteIGSEXaey3JQ4-135" value="" style="whiteSpace=wrap;glass=0;rounded=1;shadow=0;textShadow=0;rotation=-15;direction=west;strokeWidth=2;perimeterSpacing=2;flipV=1;flipH=1;fontFamily=Comic Sans MS;fontStyle=0;fillColor=#FFFFFF;" parent="_eD-Y539RmsAj1h9kYog-53" vertex="1">
          <mxGeometry x="228.4089121887287" y="118" width="29.567496723460025" height="30" as="geometry" />
        </mxCell>
        <mxCell id="W65jjInmlXqQC7ASUcbz-36" value="home" style="whiteSpace=wrap;glass=0;rounded=1;shadow=0;textShadow=0;strokeWidth=2;perimeterSpacing=2;flipV=1;flipH=1;fillColor=#FFFFCC;strokeColor=#BDBDBD;fontFamily=Comic Sans MS;fontStyle=0;fontSize=11;" parent="_eD-Y539RmsAj1h9kYog-53" vertex="1">
          <mxGeometry x="11.334207077326344" y="10" width="29.567496723460025" height="30" as="geometry" />
        </mxCell>
        <mxCell id="W65jjInmlXqQC7ASUcbz-37" value="end" style="whiteSpace=wrap;glass=0;rounded=1;shadow=0;textShadow=0;strokeWidth=2;perimeterSpacing=2;flipV=1;flipH=1;fillColor=#FFFFCC;strokeColor=#BDBDBD;fontFamily=Comic Sans MS;fontStyle=0;" parent="_eD-Y539RmsAj1h9kYog-53" vertex="1">
          <mxGeometry x="339.2870249017038" y="10" width="29.567496723460025" height="30" as="geometry" />
        </mxCell>
        <mxCell id="6lZ4JAKVlUNFn-7W2HPh-3" value="mouse accel slow" style="whiteSpace=wrap;glass=0;rounded=1;shadow=0;textShadow=0;strokeWidth=2;perimeterSpacing=2;flipV=1;flipH=1;fillColor=#E6D0DE;strokeColor=#BDBDBD;fontFamily=Comic Sans MS;fontStyle=0;fontSize=8;" parent="_eD-Y539RmsAj1h9kYog-53" vertex="1">
          <mxGeometry x="143.1559633027523" y="10" width="29.567496723460025" height="30" as="geometry" />
        </mxCell>
        <mxCell id="_eD-Y539RmsAj1h9kYog-69" value="&lt;font style=&quot;font-size: 18px;&quot;&gt;26 keys layout&lt;/font&gt;" style="text;html=1;align=center;verticalAlign=middle;whiteSpace=wrap;rounded=0;fontFamily=Comic Sans MS;fontStyle=0;" parent="1" vertex="1">
          <mxGeometry x="132.25" y="42" width="130" height="30" as="geometry" />
        </mxCell>
        <mxCell id="sCklD57sjOlG95tGdwZi-5" value="(L7)" style="text;html=1;align=right;verticalAlign=middle;whiteSpace=wrap;rounded=0;fontFamily=Comic Sans MS;fontSize=8;fontColor=#FF0080;fontStyle=2;" parent="1" vertex="1">
          <mxGeometry x="-308" y="341" width="35" height="10" as="geometry" />
        </mxCell>
        <mxCell id="4NZfBltiFIq9Cb83Nm9F-3" value="." style="glass=0;rounded=1;shadow=0;textShadow=0;strokeWidth=1;perimeterSpacing=0;flipV=1;flipH=1;fontSize=10;opacity=80;fillColor=#FFFFFF;verticalAlign=middle;fontFamily=Comic Sans MS;fontStyle=0;strokeColor=#000000;labelBackgroundColor=none;labelBorderColor=none;whiteSpace=wrap;align=center;fontColor=default;" parent="1" vertex="1">
          <mxGeometry x="-75" y="186" width="15" height="15" as="geometry" />
        </mxCell>
        <mxCell id="4NZfBltiFIq9Cb83Nm9F-4" value="+" style="glass=0;rounded=1;shadow=0;textShadow=0;strokeWidth=1;perimeterSpacing=0;flipV=1;flipH=1;fontSize=10;opacity=80;fillColor=#FFFFFF;verticalAlign=middle;fontFamily=Comic Sans MS;fontStyle=0;strokeColor=#000000;labelBackgroundColor=none;labelBorderColor=none;whiteSpace=wrap;align=center;fontColor=default;" parent="1" vertex="1">
          <mxGeometry x="-105" y="156" width="15" height="15" as="geometry" />
        </mxCell>
        <mxCell id="4NZfBltiFIq9Cb83Nm9F-5" value="-" style="glass=0;rounded=1;shadow=0;textShadow=0;strokeWidth=1;perimeterSpacing=0;flipV=1;flipH=1;fontSize=10;opacity=80;fillColor=#FFFFFF;verticalAlign=middle;fontFamily=Comic Sans MS;fontStyle=0;strokeColor=#000000;labelBackgroundColor=none;labelBorderColor=none;whiteSpace=wrap;align=center;fontColor=default;" parent="1" vertex="1">
          <mxGeometry x="-75" y="156" width="15" height="15" as="geometry" />
        </mxCell>
        <mxCell id="4NZfBltiFIq9Cb83Nm9F-6" value="=" style="glass=0;rounded=1;shadow=0;textShadow=0;strokeWidth=1;perimeterSpacing=0;flipV=1;flipH=1;fontSize=10;opacity=80;fillColor=#FFFFFF;verticalAlign=middle;fontFamily=Comic Sans MS;fontStyle=0;strokeColor=#000000;labelBackgroundColor=none;labelBorderColor=none;whiteSpace=wrap;align=center;fontColor=default;" parent="1" vertex="1">
          <mxGeometry x="-105" y="126" width="15" height="15" as="geometry" />
        </mxCell>
        <mxCell id="4NZfBltiFIq9Cb83Nm9F-7" value="*" style="glass=0;rounded=1;shadow=0;textShadow=0;strokeWidth=1;perimeterSpacing=0;flipV=1;flipH=1;fontSize=10;opacity=80;fillColor=#FFFFFF;verticalAlign=middle;fontFamily=Comic Sans MS;fontStyle=0;strokeColor=#000000;labelBackgroundColor=none;labelBorderColor=none;whiteSpace=wrap;align=center;fontColor=default;" parent="1" vertex="1">
          <mxGeometry x="-75" y="126" width="15" height="15" as="geometry" />
        </mxCell>
        <mxCell id="4NZfBltiFIq9Cb83Nm9F-8" value="," style="glass=0;rounded=1;shadow=0;textShadow=0;strokeWidth=1;perimeterSpacing=0;flipV=1;flipH=1;fontSize=10;opacity=80;fillColor=#FFFFFF;verticalAlign=middle;fontFamily=Comic Sans MS;fontStyle=0;strokeColor=#000000;labelBackgroundColor=none;labelBorderColor=none;whiteSpace=wrap;align=center;fontColor=default;" parent="1" vertex="1">
          <mxGeometry x="-305" y="186" width="15" height="15" as="geometry" />
        </mxCell>
        <mxCell id="4NZfBltiFIq9Cb83Nm9F-9" value="." style="glass=0;rounded=1;shadow=0;textShadow=0;strokeWidth=1;perimeterSpacing=0;flipV=1;flipH=1;fontSize=10;opacity=80;fillColor=#FFFFFF;verticalAlign=middle;fontFamily=Comic Sans MS;fontStyle=0;strokeColor=#000000;labelBackgroundColor=none;labelBorderColor=none;whiteSpace=wrap;align=center;fontColor=default;" parent="1" vertex="1">
          <mxGeometry x="-275" y="186" width="15" height="15" as="geometry" />
        </mxCell>
        <mxCell id="4NZfBltiFIq9Cb83Nm9F-10" value="+" style="glass=0;rounded=1;shadow=0;textShadow=0;strokeWidth=1;perimeterSpacing=0;flipV=1;flipH=1;fontSize=10;opacity=80;fillColor=#FFFFFF;verticalAlign=middle;fontFamily=Comic Sans MS;fontStyle=0;strokeColor=#000000;labelBackgroundColor=none;labelBorderColor=none;whiteSpace=wrap;align=center;fontColor=default;" parent="1" vertex="1">
          <mxGeometry x="-305" y="156" width="15" height="15" as="geometry" />
        </mxCell>
        <mxCell id="4NZfBltiFIq9Cb83Nm9F-11" value="-" style="glass=0;rounded=1;shadow=0;textShadow=0;strokeWidth=1;perimeterSpacing=0;flipV=1;flipH=1;fontSize=10;opacity=80;fillColor=#FFFFFF;verticalAlign=middle;fontFamily=Comic Sans MS;fontStyle=0;strokeColor=#000000;labelBackgroundColor=none;labelBorderColor=none;whiteSpace=wrap;align=center;fontColor=default;" parent="1" vertex="1">
          <mxGeometry x="-275" y="156" width="15" height="15" as="geometry" />
        </mxCell>
        <mxCell id="4NZfBltiFIq9Cb83Nm9F-12" value="=" style="glass=0;rounded=1;shadow=0;textShadow=0;strokeWidth=1;perimeterSpacing=0;flipV=1;flipH=1;fontSize=10;opacity=80;fillColor=#FFFFFF;verticalAlign=middle;fontFamily=Comic Sans MS;fontStyle=0;strokeColor=#000000;labelBackgroundColor=none;labelBorderColor=none;whiteSpace=wrap;align=center;fontColor=default;" parent="1" vertex="1">
          <mxGeometry x="-305" y="126" width="15" height="15" as="geometry" />
        </mxCell>
        <mxCell id="4NZfBltiFIq9Cb83Nm9F-13" value="*" style="glass=0;rounded=1;shadow=0;textShadow=0;strokeWidth=1;perimeterSpacing=0;flipV=1;flipH=1;fontSize=10;opacity=80;fillColor=#FFFFFF;verticalAlign=middle;fontFamily=Comic Sans MS;fontStyle=0;strokeColor=#000000;labelBackgroundColor=none;labelBorderColor=none;whiteSpace=wrap;align=center;fontColor=default;" parent="1" vertex="1">
          <mxGeometry x="-275" y="126" width="15" height="15" as="geometry" />
        </mxCell>
        <mxCell id="Ht8cUeteIGSEXaey3JQ4-25" value="I&#xa;" style="whiteSpace=wrap;glass=0;rounded=1;shadow=0;textShadow=0;strokeWidth=2;perimeterSpacing=2;flipV=1;flipH=1;fontFamily=Comic Sans MS;fontStyle=0;fillColor=#FFFFFF;" parent="1" vertex="1">
          <mxGeometry x="339.75" y="167" width="30" height="30" as="geometry" />
        </mxCell>
        <mxCell id="W65jjInmlXqQC7ASUcbz-10" value="" style="group;fontFamily=Comic Sans MS;fontStyle=0;fillColor=#FFFFFF;" parent="1" vertex="1" connectable="0">
          <mxGeometry x="20.75" y="167" width="30" height="30" as="geometry" />
        </mxCell>
        <mxCell id="Ht8cUeteIGSEXaey3JQ4-1" value="H&#xa;" style="whiteSpace=wrap;glass=0;rounded=1;shadow=0;textShadow=0;strokeWidth=2;perimeterSpacing=2;flipV=1;flipH=1;fillColor=#FFFFFF;fontFamily=Comic Sans MS;fontStyle=0;" parent="W65jjInmlXqQC7ASUcbz-10" vertex="1">
          <mxGeometry width="30" height="30" as="geometry" />
        </mxCell>
        <mxCell id="W65jjInmlXqQC7ASUcbz-8" value="&lt;i&gt;shift&lt;/i&gt;" style="text;html=1;align=center;verticalAlign=middle;whiteSpace=wrap;rounded=0;fontFamily=Comic Sans MS;fontSize=10;fontColor=#000099;fontStyle=0;" parent="W65jjInmlXqQC7ASUcbz-10" vertex="1">
          <mxGeometry x="5" y="16" width="20" height="10" as="geometry" />
        </mxCell>
        <mxCell id="Ht8cUeteIGSEXaey3JQ4-9" value="L" style="whiteSpace=wrap;glass=0;rounded=1;shadow=0;textShadow=0;strokeWidth=2;perimeterSpacing=2;flipV=1;flipH=1;fillColor=#E6D0DE;fontFamily=Comic Sans MS;fontStyle=0;" parent="1" vertex="1">
          <mxGeometry x="50.75" y="124" width="30" height="30" as="geometry" />
        </mxCell>
        <mxCell id="Ht8cUeteIGSEXaey3JQ4-10" value="D" style="whiteSpace=wrap;glass=0;rounded=1;shadow=0;textShadow=0;strokeWidth=2;perimeterSpacing=2;fontFamily=Comic Sans MS;fontStyle=0;" parent="1" vertex="1">
          <mxGeometry x="80.75" y="114" width="30" height="30" as="geometry" />
        </mxCell>
        <mxCell id="Ht8cUeteIGSEXaey3JQ4-18" value="F" style="whiteSpace=wrap;glass=0;rounded=1;shadow=0;textShadow=0;strokeWidth=2;perimeterSpacing=2;flipV=1;flipH=1;fillColor=#E6D0DE;fontFamily=Comic Sans MS;fontStyle=0;" parent="1" vertex="1">
          <mxGeometry x="249.75" y="124" width="30" height="30" as="geometry" />
        </mxCell>
        <mxCell id="Ht8cUeteIGSEXaey3JQ4-21" value="O" style="whiteSpace=wrap;glass=0;rounded=1;shadow=0;textShadow=0;strokeWidth=2;perimeterSpacing=2;flipV=1;flipH=1;fontFamily=Comic Sans MS;fontStyle=0;" parent="1" vertex="1">
          <mxGeometry x="279.75" y="114" width="30" height="30" as="geometry" />
        </mxCell>
        <mxCell id="Ht8cUeteIGSEXaey3JQ4-24" value="U" style="whiteSpace=wrap;glass=0;rounded=1;shadow=0;textShadow=0;strokeWidth=2;perimeterSpacing=2;flipV=1;flipH=1;fillColor=#E6D0DE;fontFamily=Comic Sans MS;fontStyle=0;" parent="1" vertex="1">
          <mxGeometry x="309.75" y="124" width="30" height="30" as="geometry" />
        </mxCell>
        <mxCell id="W65jjInmlXqQC7ASUcbz-11" value="" style="group;fontFamily=Comic Sans MS;fontStyle=0;fillColor=#FFFFCC;" parent="1" vertex="1" connectable="0">
          <mxGeometry x="50.75" y="184" width="30" height="30" as="geometry" />
        </mxCell>
        <mxCell id="Ht8cUeteIGSEXaey3JQ4-4" value="Tab&#xa;" style="whiteSpace=wrap;glass=0;rounded=1;shadow=0;textShadow=0;strokeWidth=2;perimeterSpacing=2;flipV=1;flipH=1;fillColor=#FFFFCC;fontFamily=Comic Sans MS;fontStyle=0;align=left;fontSize=10;" parent="W65jjInmlXqQC7ASUcbz-11" vertex="1">
          <mxGeometry width="30" height="30" as="geometry" />
        </mxCell>
        <mxCell id="W65jjInmlXqQC7ASUcbz-9" value="&lt;i&gt;ctrl&lt;/i&gt;" style="text;html=1;align=center;verticalAlign=middle;whiteSpace=wrap;rounded=0;fontFamily=Comic Sans MS;fontSize=10;fontColor=#000099;fontStyle=0;" parent="W65jjInmlXqQC7ASUcbz-11" vertex="1">
          <mxGeometry x="2" y="17" width="20" height="10" as="geometry" />
        </mxCell>
        <mxCell id="Ht8cUeteIGSEXaey3JQ4-3" value="R&#xa;" style="whiteSpace=wrap;glass=0;rounded=1;shadow=0;textShadow=0;strokeWidth=2;perimeterSpacing=2;flipV=1;flipH=1;fillColor=#CCFFFF;fontFamily=Comic Sans MS;fontStyle=0;strokeColor=#FF33FF;" parent="1" vertex="1">
          <mxGeometry x="50.75" y="154" width="30" height="30" as="geometry" />
        </mxCell>
        <mxCell id="Ht8cUeteIGSEXaey3JQ4-5" value="T&#xa;" style="whiteSpace=wrap;glass=0;rounded=1;shadow=0;textShadow=0;strokeWidth=2;perimeterSpacing=2;flipV=1;flipH=1;fontFamily=Comic Sans MS;fontStyle=0;strokeColor=#FF0000;fillColor=#CCFFCC;" parent="1" vertex="1">
          <mxGeometry x="80.75" y="144" width="30" height="30" as="geometry" />
        </mxCell>
        <mxCell id="Ht8cUeteIGSEXaey3JQ4-14" value="Y" style="whiteSpace=wrap;glass=0;rounded=1;shadow=0;textShadow=0;strokeWidth=2;perimeterSpacing=2;flipV=1;flipH=1;fillColor=#CCE5FF;fontFamily=Comic Sans MS;fontStyle=0;" parent="1" vertex="1">
          <mxGeometry x="219.75" y="154" width="30" height="30" as="geometry" />
        </mxCell>
        <mxCell id="Ht8cUeteIGSEXaey3JQ4-17" value="P&#xa;" style="whiteSpace=wrap;glass=0;rounded=1;shadow=0;textShadow=0;strokeWidth=2;perimeterSpacing=2;flipV=1;flipH=1;fillColor=#FFFFCC;fontFamily=Comic Sans MS;fontStyle=0;gradientColor=#CCFFCC;gradientDirection=south;" parent="1" vertex="1">
          <mxGeometry x="249.75" y="184" width="30" height="30" as="geometry" />
        </mxCell>
        <mxCell id="Ht8cUeteIGSEXaey3JQ4-16" value="N&#xa;" style="whiteSpace=wrap;glass=0;rounded=1;shadow=0;textShadow=0;strokeWidth=2;perimeterSpacing=2;flipV=1;flipH=1;fillColor=#CCFFFF;fontFamily=Comic Sans MS;fontStyle=0;strokeColor=#9933FF;" parent="1" vertex="1">
          <mxGeometry x="249.75" y="154" width="30" height="30" as="geometry" />
        </mxCell>
        <mxCell id="Ht8cUeteIGSEXaey3JQ4-20" value=",&#xa;" style="whiteSpace=wrap;glass=0;rounded=1;shadow=0;textShadow=0;strokeWidth=2;perimeterSpacing=2;flipV=1;flipH=1;fontFamily=Comic Sans MS;fontStyle=0;fillColor=#FFFFFF;" parent="1" vertex="1">
          <mxGeometry x="279.75" y="174" width="30" height="30" as="geometry" />
        </mxCell>
        <mxCell id="Ht8cUeteIGSEXaey3JQ4-19" value="A&#xa;" style="whiteSpace=wrap;glass=0;rounded=1;shadow=0;textShadow=0;strokeWidth=2;perimeterSpacing=2;flipV=1;flipH=1;fontFamily=Comic Sans MS;fontStyle=0;strokeColor=#FF0000;fillColor=#CCFFCC;" parent="1" vertex="1">
          <mxGeometry x="279.75" y="144" width="30" height="30" as="geometry" />
        </mxCell>
        <mxCell id="Ht8cUeteIGSEXaey3JQ4-23" value=".&#xa;" style="whiteSpace=wrap;glass=0;rounded=1;shadow=0;textShadow=0;strokeWidth=2;perimeterSpacing=2;flipV=1;flipH=1;fillColor=#FFFFCC;fontFamily=Comic Sans MS;fontStyle=0;" parent="1" vertex="1">
          <mxGeometry x="309.75" y="184" width="30" height="30" as="geometry" />
        </mxCell>
        <mxCell id="Ht8cUeteIGSEXaey3JQ4-22" value="E&#xa;" style="whiteSpace=wrap;glass=0;rounded=1;shadow=0;textShadow=0;strokeWidth=2;perimeterSpacing=2;flipV=1;flipH=1;fillColor=#CCFFFF;fontFamily=Comic Sans MS;fontStyle=0;strokeColor=#FF33FF;" parent="1" vertex="1">
          <mxGeometry x="309.75" y="154" width="30" height="30" as="geometry" />
        </mxCell>
        <mxCell id="Ht8cUeteIGSEXaey3JQ4-27" value="edit" style="whiteSpace=wrap;glass=0;rounded=1;shadow=0;textShadow=0;rotation=15;direction=west;strokeWidth=2;perimeterSpacing=2;flipV=1;flipH=1;fontFamily=Comic Sans MS;fontStyle=4;fontColor=#3333FF;strokeColor=#3333FF;" parent="1" vertex="1">
          <mxGeometry x="123.75" y="222" width="30" height="30" as="geometry" />
        </mxCell>
        <mxCell id="Ht8cUeteIGSEXaey3JQ4-28" value="Spc&#xa;" style="whiteSpace=wrap;glass=0;rounded=1;shadow=0;textShadow=0;rotation=30;direction=north;strokeWidth=2;perimeterSpacing=2;flipV=1;flipH=1;fontFamily=Comic Sans MS;fontStyle=0;strokeColor=#FF8000;" parent="1" vertex="1">
          <mxGeometry x="154.75" y="234" width="30" height="30" as="geometry" />
        </mxCell>
        <mxCell id="Ht8cUeteIGSEXaey3JQ4-29" value="Bksp&#xa;" style="whiteSpace=wrap;glass=0;rounded=1;shadow=0;textShadow=0;rotation=-30;direction=north;strokeWidth=2;perimeterSpacing=2;flipV=1;flipH=1;fontFamily=Comic Sans MS;fontStyle=0;strokeColor=#00CCCC;" parent="1" vertex="1">
          <mxGeometry x="204.75" y="234" width="30" height="30" as="geometry" />
        </mxCell>
        <mxCell id="Ht8cUeteIGSEXaey3JQ4-30" value="Enter&#xa;" style="whiteSpace=wrap;glass=0;rounded=1;shadow=0;textShadow=0;rotation=-15;direction=west;strokeWidth=2;perimeterSpacing=2;flipV=1;flipH=1;fontFamily=Comic Sans MS;fontStyle=0;fontSize=10;strokeColor=#FF33FF;" parent="1" vertex="1">
          <mxGeometry x="235.75" y="222" width="30" height="30" as="geometry" />
        </mxCell>
        <mxCell id="Ht8cUeteIGSEXaey3JQ4-65" value="X" style="glass=0;rounded=1;shadow=0;textShadow=0;strokeWidth=1;perimeterSpacing=0;flipV=1;flipH=1;fontSize=10;opacity=80;fillColor=#FFFFFF;verticalAlign=bottom;fontFamily=Comic Sans MS;fontStyle=0;strokeColor=#000000;labelBackgroundColor=none;labelBorderColor=none;whiteSpace=wrap;" parent="1" vertex="1">
          <mxGeometry x="72.75" y="124" width="15" height="15" as="geometry" />
        </mxCell>
        <mxCell id="Ht8cUeteIGSEXaey3JQ4-70" value="Z" style="glass=0;rounded=1;shadow=0;textShadow=0;strokeWidth=1;perimeterSpacing=0;flipV=1;flipH=1;fontSize=10;opacity=80;fillColor=#FFFFFF;verticalAlign=middle;fontFamily=Comic Sans MS;fontStyle=0;strokeColor=#000000;labelBackgroundColor=none;labelBorderColor=none;whiteSpace=wrap;align=center;fontColor=default;" parent="1" vertex="1">
          <mxGeometry x="72.75" y="189" width="15" height="15" as="geometry" />
        </mxCell>
        <mxCell id="Ht8cUeteIGSEXaey3JQ4-75" value=";" style="glass=0;rounded=1;shadow=0;textShadow=0;strokeWidth=1;perimeterSpacing=0;flipV=1;flipH=1;fontSize=10;opacity=80;fillColor=#FFFFFF;verticalAlign=bottom;fontFamily=Comic Sans MS;fontStyle=0;strokeColor=#000000;labelBackgroundColor=none;labelBorderColor=none;whiteSpace=wrap;align=center;fontColor=default;" parent="1" vertex="1">
          <mxGeometry x="302.75" y="188" width="15" height="15" as="geometry" />
        </mxCell>
        <mxCell id="Ht8cUeteIGSEXaey3JQ4-167" value="V" style="glass=0;rounded=1;shadow=0;textShadow=0;strokeWidth=1;perimeterSpacing=0;flipV=1;flipH=1;fontSize=10;opacity=80;fillColor=#FFFFFF;verticalAlign=middle;fontFamily=Comic Sans MS;fontStyle=0;strokeColor=#000000;labelBackgroundColor=none;labelBorderColor=none;whiteSpace=wrap;align=center;fontColor=default;" parent="1" vertex="1">
          <mxGeometry x="103.75" y="188.5" width="15" height="15" as="geometry" />
        </mxCell>
        <mxCell id="5RLpgv3sIOo74zPUsTbB-3" value="Caps Lock" style="whiteSpace=wrap;glass=0;rounded=1;shadow=0;textShadow=0;strokeWidth=2;perimeterSpacing=2;flipV=1;flipH=1;fillColor=#CCE5FF;strokeColor=#BDBDBD;fontFamily=Comic Sans MS;fontStyle=0;fontSize=10;" parent="1" vertex="1">
          <mxGeometry x="180.25" y="114" width="30" height="30" as="geometry" />
        </mxCell>
        <mxCell id="W65jjInmlXqQC7ASUcbz-15" value="&lt;i&gt;alt&lt;/i&gt;" style="text;html=1;align=center;verticalAlign=middle;whiteSpace=wrap;rounded=0;fontFamily=Comic Sans MS;fontSize=10;fontColor=#000099;fontStyle=0;" parent="1" vertex="1">
          <mxGeometry x="85.75" y="190" width="20" height="10" as="geometry" />
        </mxCell>
        <mxCell id="W65jjInmlXqQC7ASUcbz-17" value="&lt;span&gt;&lt;font&gt;num&lt;/font&gt;&lt;/span&gt;" style="text;html=1;align=center;verticalAlign=middle;whiteSpace=wrap;rounded=0;fontFamily=Comic Sans MS;fontSize=10;fontColor=#FF0000;fontStyle=4;" parent="1" vertex="1">
          <mxGeometry x="85.75" y="160" width="20" height="10" as="geometry" />
        </mxCell>
        <mxCell id="W65jjInmlXqQC7ASUcbz-18" value="&lt;font color=&quot;#ff8000&quot;&gt;&lt;u&gt;fun&lt;/u&gt;&lt;/font&gt;" style="text;html=1;align=center;verticalAlign=middle;whiteSpace=wrap;rounded=0;fontFamily=Comic Sans MS;fontSize=12;fontColor=#009900;rotation=30;fontStyle=0;" parent="1" vertex="1">
          <mxGeometry x="157.25" y="249" width="20" height="10" as="geometry" />
        </mxCell>
        <mxCell id="W65jjInmlXqQC7ASUcbz-19" value="&lt;font color=&quot;#00cccc&quot;&gt;&lt;u&gt;sys&lt;/u&gt;&lt;/font&gt;" style="text;html=1;align=center;verticalAlign=middle;whiteSpace=wrap;rounded=0;fontFamily=Comic Sans MS;fontSize=12;fontColor=#009900;rotation=330;fontStyle=0;" parent="1" vertex="1">
          <mxGeometry x="210.25" y="248" width="20" height="10" as="geometry" />
        </mxCell>
        <mxCell id="W65jjInmlXqQC7ASUcbz-21" value="&lt;u&gt;nav&lt;/u&gt;" style="text;html=1;align=center;verticalAlign=middle;whiteSpace=wrap;rounded=0;fontFamily=Comic Sans MS;fontSize=10;fontColor=#009900;fontStyle=0;" parent="1" vertex="1">
          <mxGeometry x="115.75" y="170" width="20" height="10" as="geometry" />
        </mxCell>
        <mxCell id="W65jjInmlXqQC7ASUcbz-26" value="&lt;i&gt;ctrl&lt;/i&gt;" style="text;html=1;align=center;verticalAlign=middle;whiteSpace=wrap;rounded=0;fontFamily=Comic Sans MS;fontSize=10;fontColor=#000099;fontStyle=0;" parent="1" vertex="1">
          <mxGeometry x="317.75" y="201" width="20" height="10" as="geometry" />
        </mxCell>
        <mxCell id="W65jjInmlXqQC7ASUcbz-27" value="shift" style="text;html=1;align=center;verticalAlign=middle;whiteSpace=wrap;rounded=0;fontFamily=Comic Sans MS;fontSize=10;fontColor=#000099;fontStyle=0;" parent="1" vertex="1">
          <mxGeometry x="344.75" y="183" width="20" height="10" as="geometry" />
        </mxCell>
        <mxCell id="W65jjInmlXqQC7ASUcbz-28" value="&lt;i&gt;alt&lt;/i&gt;" style="text;html=1;align=center;verticalAlign=middle;whiteSpace=wrap;rounded=0;fontFamily=Comic Sans MS;fontSize=10;fontColor=#000099;fontStyle=0;" parent="1" vertex="1">
          <mxGeometry x="284.75" y="191" width="20" height="10" as="geometry" />
        </mxCell>
        <mxCell id="qw4ajjjwQAtCogC3Zvgt-3" value="&lt;font color=&quot;#ff33ff&quot;&gt;&lt;u&gt;sym&lt;/u&gt;&lt;/font&gt;" style="text;html=1;align=center;verticalAlign=middle;whiteSpace=wrap;rounded=0;fontFamily=Comic Sans MS;fontSize=10;fontColor=#009900;fontStyle=0;" parent="1" vertex="1">
          <mxGeometry x="55.75" y="170" width="20" height="10" as="geometry" />
        </mxCell>
        <mxCell id="qw4ajjjwQAtCogC3Zvgt-4" value="&lt;font color=&quot;#ff33ff&quot;&gt;&lt;u&gt;sym&lt;/u&gt;&lt;/font&gt;" style="text;html=1;align=center;verticalAlign=middle;whiteSpace=wrap;rounded=0;fontFamily=Comic Sans MS;fontSize=10;fontColor=#009900;fontStyle=0;" parent="1" vertex="1">
          <mxGeometry x="314.75" y="170" width="20.25" height="10" as="geometry" />
        </mxCell>
        <mxCell id="qw4ajjjwQAtCogC3Zvgt-6" value="&lt;font color=&quot;#ff0000&quot;&gt;&lt;u&gt;num&lt;/u&gt;&lt;/font&gt;" style="text;html=1;align=center;verticalAlign=middle;whiteSpace=wrap;rounded=0;fontFamily=Comic Sans MS;fontSize=10;fontColor=#009900;fontStyle=0;" parent="1" vertex="1">
          <mxGeometry x="285.75" y="159.5" width="20" height="10" as="geometry" />
        </mxCell>
        <mxCell id="MceUDlZtOFOat2aFnNCN-72" value="&lt;i&gt;gui&lt;/i&gt;" style="text;html=1;align=center;verticalAlign=middle;whiteSpace=wrap;rounded=0;fontFamily=Comic Sans MS;fontSize=10;fontColor=#000099;fontStyle=0;" parent="1" vertex="1">
          <mxGeometry x="115.75" y="200" width="20" height="10" as="geometry" />
        </mxCell>
        <mxCell id="MceUDlZtOFOat2aFnNCN-73" value="&lt;i&gt;gui&lt;/i&gt;" style="text;html=1;align=center;verticalAlign=middle;whiteSpace=wrap;rounded=0;fontFamily=Comic Sans MS;fontSize=10;fontColor=#000099;fontStyle=0;" parent="1" vertex="1">
          <mxGeometry x="254.75" y="200" width="20" height="10" as="geometry" />
        </mxCell>
        <mxCell id="_eD-Y539RmsAj1h9kYog-32" value="&lt;font color=&quot;#9933ff&quot;&gt;&lt;u&gt;french&lt;/u&gt;&lt;/font&gt;" style="text;html=1;align=center;verticalAlign=middle;whiteSpace=wrap;rounded=0;fontFamily=Comic Sans MS;fontSize=8;fontColor=#009900;fontStyle=0;" parent="1" vertex="1">
          <mxGeometry x="254.75" y="170" width="20" height="10" as="geometry" />
        </mxCell>
        <mxCell id="sCklD57sjOlG95tGdwZi-6" value="&lt;u style=&quot;&quot;&gt;&lt;font&gt;sym&lt;/font&gt;&lt;/u&gt;" style="text;html=1;align=center;verticalAlign=middle;whiteSpace=wrap;rounded=0;fontFamily=Comic Sans MS;fontSize=12;fontColor=#FF33FF;rotation=345;fontStyle=0;" parent="1" vertex="1">
          <mxGeometry x="239.75" y="236" width="20" height="10" as="geometry" />
        </mxCell>
        <mxCell id="Ht8cUeteIGSEXaey3JQ4-63" value="(" style="whiteSpace=wrap;glass=0;rounded=1;shadow=0;textShadow=0;strokeWidth=2;perimeterSpacing=2;flipV=1;flipH=1;fillColor=#FFFFCC;strokeColor=#BDBDBD;fontFamily=Comic Sans MS;fontStyle=0;" parent="1" vertex="1">
          <mxGeometry x="164.25" y="191" width="30" height="30" as="geometry" />
        </mxCell>
        <mxCell id="6JfULVVAnRezkE2NTk1h-9" value="N" style="whiteSpace=wrap;glass=0;rounded=1;shadow=0;textShadow=0;strokeWidth=1;perimeterSpacing=2;flipV=1;flipH=1;fontFamily=Comic Sans MS;fontStyle=0;fontSize=7;" parent="1" vertex="1">
          <mxGeometry x="274" y="74" width="13" height="12" as="geometry" />
        </mxCell>
        <mxCell id="6JfULVVAnRezkE2NTk1h-10" value="= &lt;span style=&quot;font-size: 8px;&quot;&gt;&quot;ion&quot;&lt;/span&gt;" style="text;html=1;align=center;verticalAlign=middle;whiteSpace=wrap;rounded=0;fontFamily=Comic Sans MS;fontStyle=0;" parent="1" vertex="1">
          <mxGeometry x="314" y="81.5" width="45" height="30" as="geometry" />
        </mxCell>
        <mxCell id="6JfULVVAnRezkE2NTk1h-11" value="" style="group;fontSize=12;rounded=0;glass=0;shadow=0;fontFamily=Comic Sans MS;fontStyle=0;" parent="1" vertex="1" connectable="0">
          <mxGeometry x="270" y="247" width="116" height="30" as="geometry" />
        </mxCell>
        <mxCell id="6JfULVVAnRezkE2NTk1h-12" value="+" style="text;html=1;align=center;verticalAlign=middle;whiteSpace=wrap;rounded=0;fontFamily=Comic Sans MS;fontStyle=0;" parent="6JfULVVAnRezkE2NTk1h-11" vertex="1">
          <mxGeometry x="10" y="-167" width="30" height="30" as="geometry" />
        </mxCell>
        <mxCell id="6JfULVVAnRezkE2NTk1h-13" value="E" style="whiteSpace=wrap;glass=0;rounded=1;shadow=0;textShadow=0;strokeWidth=1;perimeterSpacing=2;flipV=1;flipH=1;fontFamily=Comic Sans MS;fontStyle=0;fontSize=7;" parent="6JfULVVAnRezkE2NTk1h-11" vertex="1">
          <mxGeometry x="34" y="-156.5" width="13" height="12" as="geometry" />
        </mxCell>
        <mxCell id="6JfULVVAnRezkE2NTk1h-15" value="P" style="whiteSpace=wrap;glass=0;rounded=1;shadow=0;textShadow=0;strokeWidth=1;perimeterSpacing=2;flipV=1;flipH=1;fontFamily=Comic Sans MS;fontStyle=0;fontSize=7;" parent="1" vertex="1">
          <mxGeometry x="274" y="90.5" width="13" height="12" as="geometry" />
        </mxCell>
        <mxCell id="RJeuTp9ZgjLy-wU7Q7uW-2" value="€" style="glass=0;rounded=1;shadow=0;textShadow=0;strokeWidth=1;perimeterSpacing=0;flipV=1;flipH=1;fontSize=10;opacity=80;fillColor=#FFFFFF;verticalAlign=middle;fontFamily=Comic Sans MS;fontStyle=0;strokeColor=#000000;labelBackgroundColor=none;labelBorderColor=none;whiteSpace=wrap;align=center;fontColor=default;" parent="1" vertex="1">
          <mxGeometry x="478" y="307.5" width="15" height="15" as="geometry" />
        </mxCell>
        <mxCell id="Pjv_mkyyf3M5gHm9QHqR-1" value="" style="group;fontSize=10;fontFamily=Comic Sans MS;fontStyle=0;" parent="1" vertex="1" connectable="0">
          <mxGeometry x="72.75" y="156.5" width="15" height="15" as="geometry" />
        </mxCell>
        <mxCell id="Pjv_mkyyf3M5gHm9QHqR-2" value="W" style="glass=0;rounded=1;shadow=0;textShadow=0;strokeWidth=1;perimeterSpacing=0;flipV=1;flipH=1;fontSize=10;opacity=80;fillColor=#FFFFFF;verticalAlign=middle;fontFamily=Comic Sans MS;fontStyle=0;strokeColor=#000000;labelBackgroundColor=none;labelBorderColor=none;whiteSpace=wrap;align=center;fontColor=default;horizontal=1;spacing=1;spacingTop=0;" parent="Pjv_mkyyf3M5gHm9QHqR-1" vertex="1">
          <mxGeometry x="-1" width="15" height="15" as="geometry" />
        </mxCell>
        <mxCell id="BS_R595qMMjMmpYviHN3-6" style="edgeStyle=orthogonalEdgeStyle;rounded=0;orthogonalLoop=1;jettySize=auto;html=1;exitX=0;exitY=0.5;exitDx=0;exitDy=0;entryX=1;entryY=0.75;entryDx=0;entryDy=0;strokeColor=none;curved=1;fontFamily=Comic Sans MS;fontStyle=0;" parent="1" target="Ht8cUeteIGSEXaey3JQ4-6" edge="1">
          <mxGeometry relative="1" as="geometry">
            <mxPoint x="168.0000000000001" y="200.5" as="sourcePoint" />
          </mxGeometry>
        </mxCell>
        <mxCell id="BS_R595qMMjMmpYviHN3-15" value="[" style="whiteSpace=wrap;glass=0;rounded=1;shadow=0;textShadow=0;strokeWidth=2;perimeterSpacing=2;flipV=1;flipH=1;fillColor=#E6D0DE;strokeColor=#BDBDBD;fontFamily=Comic Sans MS;fontStyle=0;fontSize=10;" parent="1" vertex="1">
          <mxGeometry x="9.75" y="124" width="30" height="30" as="geometry" />
        </mxCell>
        <mxCell id="BS_R595qMMjMmpYviHN3-17" value="Esc" style="glass=0;rounded=1;shadow=0;textShadow=0;strokeWidth=1;perimeterSpacing=0;flipV=1;flipH=1;fontSize=8;opacity=80;fillColor=#FFFFFF;verticalAlign=bottom;fontFamily=Comic Sans MS;fontStyle=0;strokeColor=#000000;labelBackgroundColor=none;labelBorderColor=none;whiteSpace=wrap;align=center;fontColor=default;" parent="1" vertex="1">
          <mxGeometry x="303" y="124" width="15" height="15" as="geometry" />
        </mxCell>
        <mxCell id="Js_6zE-AoH28bZIsBrgF-2" value="^" style="glass=0;rounded=1;shadow=0;textShadow=0;strokeWidth=1;perimeterSpacing=0;flipV=1;flipH=1;fontSize=10;opacity=80;fillColor=#FFFFFF;verticalAlign=middle;fontFamily=Comic Sans MS;fontStyle=0;strokeColor=#000000;labelBackgroundColor=none;labelBorderColor=none;whiteSpace=wrap;align=center;fontColor=default;" parent="1" vertex="1">
          <mxGeometry x="677" y="336.5" width="15" height="15" as="geometry" />
        </mxCell>
        <mxCell id="WtqngirezqcdCI8-g-uk-1" value="_" style="glass=0;rounded=1;shadow=0;textShadow=0;strokeWidth=1;perimeterSpacing=0;flipV=1;flipH=1;fontSize=10;opacity=80;fillColor=#FFFFFF;verticalAlign=bottom;fontFamily=Comic Sans MS;fontStyle=0;strokeColor=#000000;labelBackgroundColor=none;labelBorderColor=none;whiteSpace=wrap;align=center;fontColor=default;" parent="1" vertex="1">
          <mxGeometry x="305.75" y="156" width="15" height="15" as="geometry" />
        </mxCell>
        <mxCell id="7zR4wIPE1CO28s21XZjC-7" value="B" style="whiteSpace=wrap;glass=0;rounded=1;shadow=0;textShadow=0;strokeWidth=2;perimeterSpacing=2;flipV=1;flipH=1;fillColor=#CCFFFF;strokeColor=#BDBDBD;fontFamily=Comic Sans MS;fontStyle=0;fontSize=12;" parent="1" vertex="1">
          <mxGeometry x="50.75" y="219" width="30" height="30" as="geometry" />
        </mxCell>
        <mxCell id="7zR4wIPE1CO28s21XZjC-9" value="-" style="whiteSpace=wrap;glass=0;rounded=1;shadow=0;textShadow=0;strokeWidth=2;perimeterSpacing=2;flipV=1;flipH=1;fillColor=#CCFFFF;strokeColor=#BDBDBD;fontFamily=Comic Sans MS;fontStyle=0;fontSize=11;" parent="1" vertex="1">
          <mxGeometry x="310" y="219" width="30" height="30" as="geometry" />
        </mxCell>
        <mxCell id="7zR4wIPE1CO28s21XZjC-10" value=")" style="whiteSpace=wrap;glass=0;rounded=1;shadow=0;textShadow=0;strokeWidth=2;perimeterSpacing=2;flipV=1;flipH=1;fillColor=#FFFFCC;strokeColor=#BDBDBD;fontFamily=Comic Sans MS;fontStyle=0;" parent="1" vertex="1">
          <mxGeometry x="195.25" y="191" width="30" height="30" as="geometry" />
        </mxCell>
        <mxCell id="j2b1J1lqL1nlAbcfslb_-11" value="K" style="whiteSpace=wrap;glass=0;rounded=1;shadow=0;textShadow=0;strokeWidth=2;perimeterSpacing=2;flipV=1;flipH=1;fillColor=#CCFFCC;strokeColor=#BDBDBD;fontFamily=Comic Sans MS;fontStyle=0;" parent="1" vertex="1">
          <mxGeometry x="279.75" y="219" width="30" height="30" as="geometry" />
        </mxCell>
        <mxCell id="kOdQHCtrNxEU5ukmJYPU-21" value="+" style="text;html=1;align=center;verticalAlign=middle;whiteSpace=wrap;rounded=0;fontFamily=Comic Sans MS;fontStyle=0;" parent="1" vertex="1">
          <mxGeometry x="150.5" y="80" width="30" height="30" as="geometry" />
        </mxCell>
        <mxCell id="kOdQHCtrNxEU5ukmJYPU-31" value="" style="group;fontSize=11;fontFamily=Comic Sans MS;fontStyle=0;" parent="1" vertex="1" connectable="0">
          <mxGeometry x="140" y="81" width="158.25" height="39" as="geometry" />
        </mxCell>
        <mxCell id="kOdQHCtrNxEU5ukmJYPU-20" value="L" style="whiteSpace=wrap;glass=0;rounded=1;shadow=0;textShadow=0;strokeWidth=1;perimeterSpacing=2;flipV=1;flipH=1;fontFamily=Comic Sans MS;fontStyle=0;fontSize=7;" parent="kOdQHCtrNxEU5ukmJYPU-31" vertex="1">
          <mxGeometry x="3" y="9" width="13" height="12" as="geometry" />
        </mxCell>
        <mxCell id="kOdQHCtrNxEU5ukmJYPU-22" value="U" style="whiteSpace=wrap;glass=0;rounded=1;shadow=0;textShadow=0;strokeWidth=1;perimeterSpacing=2;flipV=1;flipH=1;fontFamily=Comic Sans MS;fontStyle=0;fontSize=7;" parent="kOdQHCtrNxEU5ukmJYPU-31" vertex="1">
          <mxGeometry x="34" y="9" width="13" height="12" as="geometry" />
        </mxCell>
        <mxCell id="j2b1J1lqL1nlAbcfslb_-12" value="]" style="whiteSpace=wrap;glass=0;rounded=1;shadow=0;textShadow=0;strokeWidth=2;perimeterSpacing=2;flipV=1;flipH=1;fillColor=#E6D0DE;strokeColor=#BDBDBD;fontFamily=Comic Sans MS;fontStyle=0;fontSize=10;" parent="1" vertex="1">
          <mxGeometry x="351" y="124.5" width="30" height="30" as="geometry" />
        </mxCell>
        <mxCell id="u1noantluGxjZvc2RYwz-1" value="save" style="glass=0;rounded=1;shadow=0;textShadow=0;strokeWidth=1;perimeterSpacing=0;flipV=1;flipH=1;fontSize=9;opacity=80;fillColor=#FFFFFF;verticalAlign=bottom;fontFamily=Comic Sans MS;fontStyle=0;strokeColor=#000000;labelBackgroundColor=none;labelBorderColor=none;whiteSpace=wrap;align=center;fontColor=default;" parent="1" vertex="1">
          <mxGeometry x="-277" y="333" width="15" height="15" as="geometry" />
        </mxCell>
        <mxCell id="JKRfF-Q2wDj4cceA-rky-1" value="J" style="glass=0;rounded=1;shadow=0;textShadow=0;strokeWidth=1;perimeterSpacing=0;flipV=1;flipH=1;fontSize=10;opacity=80;fillColor=#FFFFFF;verticalAlign=bottom;fontFamily=Comic Sans MS;fontStyle=0;strokeColor=#000000;labelBackgroundColor=none;labelBorderColor=none;whiteSpace=wrap;" parent="1" vertex="1">
          <mxGeometry x="104.75" y="124" width="15" height="15" as="geometry" />
        </mxCell>
        <mxCell id="gcVhubQIzvnPsYU6hU3N-2" value="&quot;&quot;&quot;" style="glass=0;rounded=1;shadow=0;textShadow=0;strokeWidth=1;perimeterSpacing=0;flipV=1;flipH=1;fontSize=8;opacity=80;fillColor=#FFFFFF;verticalAlign=middle;fontFamily=Comic Sans MS;fontStyle=0;strokeColor=#000000;labelBackgroundColor=none;labelBorderColor=none;whiteSpace=wrap;align=center;fontColor=default;" parent="1" vertex="1">
          <mxGeometry x="478" y="337.5" width="15" height="15" as="geometry" />
        </mxCell>
        <mxCell id="gcVhubQIzvnPsYU6hU3N-3" value="```" style="glass=0;rounded=1;shadow=0;textShadow=0;strokeWidth=1;perimeterSpacing=0;flipV=1;flipH=1;fontSize=8;opacity=80;fillColor=#FFFFFF;verticalAlign=middle;fontFamily=Comic Sans MS;fontStyle=0;strokeColor=#000000;labelBackgroundColor=none;labelBorderColor=none;whiteSpace=wrap;align=center;fontColor=default;" parent="1" vertex="1">
          <mxGeometry x="478" y="366.5" width="15" height="15" as="geometry" />
        </mxCell>
        <mxCell id="gcVhubQIzvnPsYU6hU3N-5" value="OS&#xa;Shift" style="glass=0;rounded=1;shadow=0;textShadow=0;strokeWidth=1;perimeterSpacing=0;flipV=1;flipH=1;fontSize=5;opacity=80;fillColor=#FFFFFF;verticalAlign=middle;fontFamily=Comic Sans MS;fontStyle=0;strokeColor=#000000;labelBackgroundColor=none;labelBorderColor=none;whiteSpace=wrap;align=center;fontColor=default;spacing=0;spacingBottom=1;horizontal=1;spacingTop=0;spacingRight=0;" parent="1" vertex="1">
          <mxGeometry x="270.75" y="156" width="15" height="15" as="geometry" />
        </mxCell>
        <mxCell id="vv_vXdtNAf5DEd10eyU3-1" value="Q" style="whiteSpace=wrap;glass=0;rounded=1;shadow=0;textShadow=0;strokeWidth=2;perimeterSpacing=2;flipV=1;flipH=1;fillColor=#CCFFCC;strokeColor=#BDBDBD;fontFamily=Comic Sans MS;fontStyle=0;" parent="1" vertex="1">
          <mxGeometry x="81.75" y="219" width="30" height="30" as="geometry" />
        </mxCell>
        <mxCell id="RNKx994mmjHFGZLLrd0E-1" value="th" style="glass=0;rounded=1;shadow=0;textShadow=0;strokeWidth=1;perimeterSpacing=0;flipV=1;flipH=1;fontSize=10;opacity=80;fillColor=#FFFFFF;verticalAlign=bottom;fontFamily=Comic Sans MS;fontStyle=0;strokeColor=#000000;labelBackgroundColor=none;labelBorderColor=none;whiteSpace=wrap;" parent="1" vertex="1">
          <mxGeometry x="105.75" y="156" width="15" height="15" as="geometry" />
        </mxCell>
        <mxCell id="RNKx994mmjHFGZLLrd0E-7" value="" style="group" parent="1" vertex="1" connectable="0">
          <mxGeometry x="56.25" y="79" width="79" height="31" as="geometry" />
        </mxCell>
        <mxCell id="RNKx994mmjHFGZLLrd0E-8" value="+" style="text;html=1;align=center;verticalAlign=middle;whiteSpace=wrap;rounded=0;fontFamily=Comic Sans MS;fontStyle=0;" parent="RNKx994mmjHFGZLLrd0E-7" vertex="1">
          <mxGeometry y="1" width="30" height="30" as="geometry" />
        </mxCell>
        <mxCell id="RNKx994mmjHFGZLLrd0E-9" value="S" style="whiteSpace=wrap;glass=0;rounded=1;shadow=0;textShadow=0;strokeWidth=1;perimeterSpacing=2;flipV=1;flipH=1;fontFamily=Comic Sans MS;fontStyle=0;fontSize=7;" parent="RNKx994mmjHFGZLLrd0E-7" vertex="1">
          <mxGeometry x="24" y="9" width="13" height="12" as="geometry" />
        </mxCell>
        <mxCell id="RNKx994mmjHFGZLLrd0E-10" value="= &lt;span style=&quot;font-size: 8px;&quot;&gt;&quot;sh&quot;&lt;/span&gt;" style="text;html=1;align=center;verticalAlign=middle;whiteSpace=wrap;rounded=0;fontFamily=Comic Sans MS;fontStyle=0;" parent="RNKx994mmjHFGZLLrd0E-7" vertex="1">
          <mxGeometry x="34" width="45" height="30" as="geometry" />
        </mxCell>
        <mxCell id="RNKx994mmjHFGZLLrd0E-12" value="T" style="whiteSpace=wrap;glass=0;rounded=1;shadow=0;textShadow=0;strokeWidth=1;perimeterSpacing=2;flipV=1;flipH=1;fontFamily=Comic Sans MS;fontStyle=0;fontSize=7;" parent="1" vertex="1">
          <mxGeometry x="49.25" y="88" width="13" height="12" as="geometry" />
        </mxCell>
        <mxCell id="RNKx994mmjHFGZLLrd0E-19" value="+" style="text;html=1;align=center;verticalAlign=middle;whiteSpace=wrap;rounded=0;fontFamily=Comic Sans MS;fontStyle=0;" parent="1" vertex="1">
          <mxGeometry x="25.25" y="80" width="30" height="30" as="geometry" />
        </mxCell>
        <mxCell id="RNKx994mmjHFGZLLrd0E-20" value="R" style="whiteSpace=wrap;glass=0;rounded=1;shadow=0;textShadow=0;strokeWidth=1;perimeterSpacing=2;flipV=1;flipH=1;fontFamily=Comic Sans MS;fontStyle=0;fontSize=7;" parent="1" vertex="1">
          <mxGeometry x="18.25" y="88" width="13" height="12" as="geometry" />
        </mxCell>
      </root>
    </mxGraphModel>
  </diagram>
</mxfile>
